<svg width="49" height="49" viewBox="0 0 49 49" fill="none" xmlns="http://www.w3.org/2000/svg">
	<path d="M24.3333 2V15.7436M2 15.7436H46.6666V43.2307C46.6666 44.142 46.3046 45.0159 45.6603 45.6603C45.0159 46.3046 44.142 46.6666 43.2307 46.6666H5.43589C4.52464 46.6666 3.65071 46.3046 3.00635 45.6603C2.362 45.0159 2 44.142 2 43.2307V15.7436Z" stroke="#EFC65A" stroke-width="3" stroke-linecap="round" stroke-linejoin="round" />
	<path d="M2 15.7436L7.15384 5.81384C7.70946 4.69467 8.5597 3.74817 9.61311 3.07617C10.6665 2.40417 11.8832 2.03211 13.1323 2H35.5343C36.8128 2.00068 38.0657 2.35798 39.1522 3.03173C40.2387 3.70548 41.1157 4.66896 41.6846 5.81384L46.6666 15.7436M32.9162 24.3333L22.6222 38.0769L15.7504 32.9299" stroke="#EFC65A" stroke-width="3" stroke-linecap="round" stroke-linejoin="round" />
</svg>
