<svg width="178" height="111" viewBox="0 0 178 111" fill="none" xmlns="http://www.w3.org/2000/svg">
	<path opacity="0.68" d="M52.6111 1.29434C50.6155 4.40287 47.8942 6.9193 45.3544 9.73179C39.7304 15.8008 36.1021 22.758 31.7481 29.4192C29.9339 32.3797 28.4825 35.4882 27.7569 38.7448C27.5755 39.929 27.5755 42.2974 27.0312 43.9257C26.8498 44.0737 26.6684 44.2217 26.4869 44.3697C26.3055 44.3697 26.4869 44.5178 26.6684 44.5178C26.8498 44.5178 26.8498 44.3697 27.0312 44.3697C26.8498 45.1099 26.3055 45.702 25.5799 45.998C25.3984 46.146 25.217 46.2941 25.3984 46.5901C24.4914 47.4783 23.5843 48.2184 22.6772 49.1065C22.4958 49.2546 22.1329 49.4026 21.9515 49.5506C21.7701 49.6987 21.9515 49.6987 21.9515 49.6987C21.0444 50.5868 20.1373 51.475 19.0488 52.5111C17.2347 53.3993 15.4205 54.2874 13.6063 55.1756C11.2479 55.6197 8.70804 56.5078 6.16819 56.5078C5.80536 56.5078 5.44252 56.5078 4.89827 56.5078C4.89827 56.5078 4.89827 56.5078 4.71685 56.5078C4.53544 56.5078 4.53544 56.5078 4.35402 56.5078C2.90268 56.3598 1.63276 56.2118 0.181418 56.0637C0.181418 56.0637 0.181418 56.0637 0.362835 56.2118C0.362835 56.3598 0.362835 56.3598 0.362835 56.5078C1.81417 56.5078 3.0841 56.6558 4.35402 56.8039C5.07969 56.9519 5.98678 56.9519 6.71245 57.0999C7.07528 57.0999 7.43812 57.0999 7.80095 57.0999C7.98237 57.0999 7.98237 57.0999 8.16379 57.0999C7.2567 57.396 6.16819 57.396 5.26111 57.396C5.26111 57.396 5.07969 57.396 5.07969 57.544C4.53544 57.544 3.99118 57.396 3.62835 57.396C2.53984 57.2479 1.45134 57.0999 0.362835 57.0999C0.362835 57.248 0.362835 57.396 0.362835 57.396C0.181418 57.544 0.181417 57.692 0 57.8401C2.17701 58.1361 4.35402 58.2841 6.53103 58.4322C6.71245 58.4322 6.89386 58.4322 7.07528 58.4322C7.2567 58.5802 7.43812 58.5802 7.61953 58.5802H7.80095C14.332 59.0243 21.2258 59.6164 27.7569 59.1723C27.9383 59.3203 28.1197 59.1723 28.3011 59.1723C29.7525 59.0243 31.0224 58.8762 32.4737 58.7282C32.8366 58.7282 33.1994 58.8762 33.5622 58.8762C43.7216 62.8729 48.0756 72.0505 54.6067 78.8597C61.5005 85.9649 71.2971 89.9616 79.6423 95.8826C87.4432 101.36 96.5141 104.468 106.673 105.652C112.297 106.392 118.103 106.392 123.727 107.133C126.992 107.577 130.076 108.169 133.16 109.057C135.519 109.797 136.97 110.389 139.51 110.241C139.873 110.241 140.054 109.945 139.873 109.797C139.51 107.577 137.152 106.54 134.793 105.8C129.895 104.172 124.815 103.432 119.736 102.1C108.85 99.1391 100.324 92.626 93.43 85.2248C90.5273 82.1162 87.8061 78.8597 83.9963 76.3432C79.8237 73.3827 74.5626 71.4584 69.4829 69.5341C66.3988 68.3499 63.4961 67.3137 60.412 66.2775C60.2306 66.1295 60.0492 66.1295 59.8678 65.9815C59.8678 65.9815 59.8678 65.9815 59.6863 65.9815C57.3279 65.2413 54.9695 64.5012 52.6111 63.7611C50.0712 63.0209 46.8057 62.4288 43.903 61.6887C43.3588 61.2446 42.6331 60.6525 42.0889 60.3565C42.6331 60.3565 42.9959 60.5045 43.5402 60.6525C51.3411 61.9848 58.7793 64.5012 66.2174 66.8696C73.2927 69.09 80.3679 71.3104 87.9875 72.1985C89.076 72.3465 90.1645 72.4946 91.0716 72.4946C93.7928 73.6788 96.5141 74.7149 99.4168 75.4551C100.868 75.8991 102.501 76.1952 104.134 76.4912C105.222 76.6393 106.311 76.7873 107.399 77.0834C107.581 77.6755 107.943 78.4156 108.488 78.8597C109.213 79.5998 110.302 80.0439 111.39 80.1919C111.935 80.1919 112.297 80.1919 112.842 80.1919C112.66 81.5241 113.749 82.5603 115.2 83.1524C116.47 83.5965 117.921 83.5965 119.373 83.3004C120.824 82.8563 122.094 81.9682 122.638 80.784C122.82 80.4879 122.82 80.1919 122.82 79.8958C122.82 80.1919 122.82 80.4879 123.001 80.784C123.545 81.9682 124.815 82.5603 126.267 82.5603C128.988 82.5603 132.616 80.784 131.709 78.2676C132.072 78.2676 132.253 78.2676 132.616 78.2676H132.798C132.435 78.7116 132.253 79.3037 132.253 79.8958C132.616 80.932 133.523 81.6721 134.793 81.8202C135.337 81.9682 135.882 81.8202 136.426 81.6721C136.97 81.5241 137.333 81.08 137.333 80.636C137.333 80.636 137.514 80.636 137.514 80.4879C137.696 80.0439 137.696 79.4518 137.333 79.0077C136.789 78.1195 135.7 77.5274 134.43 77.5274C134.068 77.5274 133.705 77.6755 133.342 77.8235C133.16 77.8235 132.798 77.8235 132.616 77.8235C132.253 77.8235 132.072 77.8235 131.709 77.6755H131.528C130.983 76.6393 130.621 75.6031 129.351 75.159C127.899 74.7149 126.267 74.863 124.997 75.6031C124.634 75.7511 124.452 76.0472 124.271 76.3432H124.09C123.727 76.3432 123.364 76.3432 123.001 76.1952C122.275 76.0472 121.731 75.8991 121.005 75.8991C120.824 75.8991 120.824 75.8991 120.643 76.0472C119.917 75.6031 119.01 75.3071 118.103 75.3071C117.74 73.9748 116.651 72.9386 115.382 72.1985C113.023 70.8663 110.12 72.1985 108.669 73.8268C108.488 73.9748 108.488 74.1228 108.306 74.2709C106.129 72.7906 103.408 72.7906 101.231 72.4946C96.8769 71.9025 92.3415 71.6064 87.9875 71.0143C78.9166 69.9781 70.5714 67.0176 62.0448 64.3532C54.7881 61.9848 47.1685 60.2085 39.549 59.0243C38.4605 58.8762 37.1906 58.5802 35.7392 58.2841C41.3632 58.1361 46.9871 57.9881 52.6111 58.1361C58.7793 58.4321 64.9475 59.1723 71.1156 59.6164C77.1024 60.0604 83.0892 60.3565 89.076 60.3565C92.3415 60.3565 96.3327 60.5045 99.5982 59.7644C101.957 59.6164 104.315 59.6164 106.673 59.4683C109.395 59.3203 111.935 58.8762 114.474 58.7282C116.833 58.4322 119.191 58.1361 121.55 57.692C123.001 57.396 124.815 57.2479 126.085 56.5078C126.448 57.396 127.174 57.9881 128.081 58.4322C130.076 59.0243 132.435 58.4321 134.068 57.396C135.337 56.6558 136.426 55.4716 136.063 54.2874C136.607 54.2874 137.333 54.1394 137.877 54.1394C138.24 54.1394 138.603 53.9914 138.966 53.9914C139.329 53.9914 139.691 53.8434 140.054 53.6953C140.78 54.4355 141.868 55.0276 143.138 55.3236C144.59 55.6197 146.222 55.4716 147.492 54.7315C147.492 55.0276 147.674 55.1756 147.855 55.4716C146.404 55.6197 144.953 55.6197 143.501 55.6197C141.868 55.6197 140.236 55.6197 138.603 55.7677C138.422 55.7677 138.24 55.9157 138.24 56.2118C138.24 56.3598 138.422 56.5078 138.603 56.5078C141.687 56.2118 145.134 56.6558 148.218 55.9157C148.399 56.0637 148.399 56.2118 148.581 56.2118C150.576 57.692 154.568 57.544 155.656 55.1756C156.019 54.8795 156.2 54.5835 156.382 54.1394C156.382 53.3993 156.2 52.5111 155.656 51.919C156.382 51.919 156.926 51.771 157.652 51.771C158.196 51.771 158.74 51.771 159.285 51.771C159.466 51.771 159.829 51.771 160.01 51.771C160.01 51.919 160.01 52.2151 160.01 52.3631C160.192 52.8072 160.373 53.2513 160.736 53.3993C161.462 53.8434 162.369 54.1394 163.457 54.1394C164.546 54.1394 165.453 53.8434 166.178 53.2513C166.904 52.5111 167.085 51.623 166.904 50.7348C166.723 50.2908 166.541 49.9947 165.997 49.6987C165.634 49.5506 165.271 49.4026 164.727 49.4026C164.727 49.2546 164.727 49.1066 164.908 48.9585C165.09 48.8105 165.09 48.8105 165.271 48.6625C165.271 48.8105 165.271 49.1065 165.634 49.1065C166.541 49.1065 167.448 49.1066 168.355 48.9585C168.718 48.9585 169.262 48.8105 169.625 48.8105C169.807 48.8105 169.988 48.6625 170.17 48.6625C170.17 48.6625 170.351 48.6625 170.351 48.5144C170.714 49.2546 171.258 49.8467 171.984 50.2908C172.528 50.5868 173.254 50.7348 173.979 50.7348C174.524 50.7348 174.886 50.4388 175.249 50.2908C176.156 49.9947 176.882 49.5506 177.245 48.9585C177.789 48.2184 177.971 47.4783 177.789 46.5901C177.608 45.85 176.882 45.2579 176.156 44.9618C175.249 44.5178 174.161 44.5178 173.072 44.6658C172.165 44.8138 171.439 45.1099 170.895 45.702C170.532 46.146 170.17 46.7381 170.17 47.3302C170.17 47.6263 170.17 47.7743 170.351 48.0704H170.17C169.988 48.0704 169.807 48.2184 169.625 48.2184C169.262 48.2184 168.718 48.3664 168.355 48.3664C167.448 48.3664 166.541 48.3664 165.634 48.5144C165.634 48.5144 165.634 48.5144 165.453 48.5144C165.997 47.4783 165.997 46.4421 165.634 45.4059C164.908 43.9257 163.457 42.8895 161.462 42.7415C158.196 42.4454 155.112 43.9257 153.842 46.4421C153.661 46.7381 153.661 47.0342 153.661 47.3302C153.479 47.3302 153.479 47.3302 153.298 47.3302C152.935 47.3302 152.572 47.4783 152.209 47.6263C151.484 47.7743 150.758 48.0704 150.032 48.2184C149.851 48.3664 149.669 48.5144 149.851 48.8105C150.032 48.9585 150.214 49.1066 150.576 48.9585C151.121 48.6625 151.846 48.5145 152.572 48.3664C152.935 48.2184 153.116 48.2184 153.479 48.0704H153.661C153.842 49.1065 154.568 49.9947 155.656 50.5868C156.382 50.8829 156.926 51.1789 157.652 51.3269C157.47 51.3269 157.47 51.3269 157.289 51.3269C156.382 51.3269 155.656 51.3269 154.749 51.475C154.568 51.3269 154.386 51.1789 154.205 51.0309C153.116 50.1427 151.484 49.9947 150.032 50.4388C150.032 49.4026 149.488 48.5144 148.581 47.7743C147.492 46.8862 146.222 46.4421 144.771 46.2941C143.501 46.2941 142.05 46.5901 141.143 47.3302C139.329 48.5144 138.422 50.4388 138.966 52.2151C139.147 52.6592 139.329 52.9552 139.51 53.2513C139.329 53.2513 139.147 53.2513 138.784 53.3993C138.422 53.3993 138.059 53.5473 137.696 53.5473C136.97 53.6953 136.245 53.6953 135.7 53.8434C135.7 53.8434 135.7 53.8434 135.7 53.6953C135.7 53.6953 135.7 53.6953 135.519 53.6953C135.519 53.1032 135.156 52.6592 134.793 52.2151C133.886 51.475 132.798 51.1789 131.709 51.0309C129.532 50.7348 126.992 51.623 126.085 53.3993C125.722 54.2874 125.541 55.1756 125.904 56.2118C124.452 56.9519 122.275 57.0999 120.643 57.396C118.284 57.84 115.926 58.1361 113.567 58.4322C111.209 58.7282 108.669 59.0243 106.129 59.1723C104.315 59.3203 102.682 59.3203 100.868 59.4683C104.315 58.5802 107.762 57.2479 110.665 55.4716C111.753 56.6558 113.567 57.0999 115.2 56.6558C115.926 56.3598 116.651 55.9157 117.014 55.3236C117.196 55.1756 117.196 55.0276 117.377 54.7315C117.559 54.7315 117.74 54.5835 117.74 54.4355C118.284 53.1032 117.921 51.3269 116.289 50.5868C114.656 49.8467 112.66 50.5868 111.209 51.475C110.483 51.919 109.939 52.5111 109.758 53.2513C109.758 53.8434 109.939 54.5835 110.302 55.0276C106.492 56.9519 102.501 58.4322 98.1468 59.3203C97.9654 59.3203 97.784 59.4683 97.784 59.6164C96.6955 59.6164 95.607 59.6164 94.6999 59.7644C91.6158 59.9124 88.5317 59.9124 85.2662 59.7644C79.4608 59.6164 73.6555 59.1723 67.8501 58.7282C56.7837 57.692 45.7172 57.396 34.6507 57.692C35.0136 57.544 35.195 57.544 35.5578 57.396C36.8277 57.2479 38.0977 57.248 39.1862 57.0999C39.1862 57.0999 39.1862 57.248 39.3676 57.0999C40.6375 56.9519 41.9074 56.8039 43.1774 56.9519C43.3588 56.9519 43.3588 56.8039 43.1774 56.8039C42.0889 56.6558 41.0003 56.6558 39.9118 56.8039C38.8233 56.8039 37.7348 56.8039 36.6463 56.8039C37.7348 56.3598 38.8233 55.7677 39.7304 55.1756C44.2659 53.6953 48.8013 52.3631 53.1553 50.8829H53.3367C53.3367 51.0309 53.5182 51.0309 53.6996 51.0309C57.8722 51.1789 61.8634 50.8829 65.8545 49.9947C70.5714 49.6987 75.4697 49.4026 80.1865 48.9585C89.9831 47.9223 99.7796 47.1822 109.576 45.85C117.559 44.8138 125.541 43.4816 132.616 40.5211C136.245 39.0408 139.329 36.9685 142.957 35.3402C145.86 33.8599 149.125 32.8237 152.028 31.4915C154.023 30.6034 160.373 28.383 159.103 25.8666C157.833 23.3501 151.846 24.6824 149.488 24.8304C141.506 25.4225 133.523 26.6067 126.085 29.4192C117.921 32.5277 110.665 35.7843 101.957 37.7086C95.607 39.3369 89.6202 41.2612 83.6334 43.4816C83.2706 43.4816 82.9078 43.6296 82.5449 43.6296C82.3635 43.6296 82.3635 43.7776 82.5449 43.9257C81.6379 44.2217 80.7308 44.6658 79.6423 44.9618C78.7352 45.4059 77.6467 45.702 76.5582 46.146C73.1112 47.3302 69.4829 48.3664 65.8545 49.2546C62.9519 49.2546 60.2306 49.4026 57.3279 49.8467C65.3103 47.1822 73.2927 44.5178 80.5494 40.6691C87.2618 36.9685 93.6114 33.1198 99.7796 28.9751C106.673 24.3863 113.93 20.3896 121.187 16.0969C122.638 15.2087 131.346 10.768 128.262 8.54758C126.629 7.36338 123.001 8.99166 121.55 9.58376C117.559 11.064 114.474 12.6923 110.12 13.1364C101.775 14.0245 93.7928 14.9127 86.3547 18.6133C82.7264 20.3896 79.4608 22.758 76.7396 25.2745C76.5582 25.2745 76.5582 25.2745 76.3767 25.2745C70.7528 28.0869 64.4032 28.383 58.235 29.8632C52.9739 31.1955 47.7128 32.8238 42.8145 35.0441C41.5446 35.4882 40.4561 36.0803 39.3676 36.6724C41.9074 34.452 43.5402 31.6395 45.5358 29.1231C46.9871 27.3468 48.9827 25.8666 50.0712 23.9422C50.9783 22.1659 51.704 20.3896 52.4296 18.4653C53.6996 14.9127 54.9695 11.212 55.6952 7.5114C56.058 6.17918 57.6908 2.03447 55.8766 0.702237C54.6067 -0.778017 53.1553 0.406185 52.6111 1.29434ZM80.0051 45.5539C86.3547 44.6658 92.5229 43.1855 98.8725 42.1494C106.129 40.9651 113.386 39.3369 120.824 38.3007C127.174 37.2645 133.705 36.3764 139.691 34.304C145.315 32.2317 150.395 29.5672 156.019 27.3468C150.395 30.4553 143.864 32.6757 138.059 35.0441C131.165 37.8566 123.727 39.929 116.107 40.9651C108.85 42.0013 101.412 42.8895 94.1557 44.2217C90.3459 44.8138 86.5361 45.702 82.7264 46.2941C79.8237 46.7381 76.921 47.4783 74.0183 47.7743C74.744 47.4783 75.4697 47.3302 76.1953 47.0342C77.2838 46.5901 78.7352 46.146 80.0051 45.5539ZM96.3327 40.077C95.7884 40.225 95.4256 40.225 94.8813 40.373C92.7043 40.9651 90.8902 42.0013 88.7131 42.4454H88.5317C90.8902 41.5573 93.2486 40.8171 95.607 40.077C95.7884 40.077 95.9698 40.077 96.3327 40.077ZM104.859 37.5606C103.408 38.0046 102.138 38.5967 100.868 39.0408C99.961 39.3369 99.0539 39.4849 98.1468 39.6329C97.784 39.6329 97.2398 39.6329 96.8769 39.7809C97.784 39.4849 98.6911 39.1888 99.5982 39.0408C101.412 38.4487 103.227 38.0046 104.859 37.5606ZM156.745 25.7185C155.293 26.0146 153.842 26.1626 152.391 26.3106C149.669 26.7547 147.13 27.0508 144.408 27.4948C138.966 28.235 133.523 28.8271 128.262 30.1593C124.634 31.0474 121.368 32.6757 117.74 34.008C114.474 35.1922 111.027 36.0803 107.581 36.8204C111.935 35.6362 116.289 34.156 120.28 32.3797C127.355 29.4192 134.068 27.0508 142.05 26.0146C145.497 25.5705 148.944 25.2745 152.209 24.9784C153.116 24.9784 155.293 24.3863 156.2 24.9784C156.563 25.1264 156.745 25.4225 156.745 25.7185ZM156.926 26.6067C151.121 28.679 145.86 31.6395 140.054 33.7119C133.342 36.2283 126.267 36.9685 119.191 38.1527C111.935 39.3369 104.678 40.8171 97.2398 42.0013C91.9787 42.8895 86.5361 44.0737 81.275 44.9618C83.0892 44.3697 84.722 43.6296 86.5361 43.0375C87.6246 42.8895 88.7131 42.7415 89.8016 42.4454C91.4344 42.0013 92.8857 41.2612 94.5185 40.8171C95.7884 40.3731 97.2398 40.077 98.5097 39.7809C101.775 39.3369 104.859 38.8928 108.125 38.1527C113.567 36.9685 118.828 35.9323 124.09 34.6001C128.988 33.4159 134.068 32.3797 139.147 31.1955C144.771 29.7152 150.214 28.0869 156.019 26.9027C156.2 26.9027 156.2 26.7547 156.019 26.7547C150.939 27.6429 146.041 29.1231 141.143 30.4553C135.882 31.7876 130.439 32.8238 125.178 34.156C120.28 35.3402 115.382 36.6724 110.302 37.5606C107.218 38.1527 104.315 38.7448 101.231 39.1888C103.227 38.4487 105.404 37.7086 107.581 37.1165C116.289 35.1922 123.727 31.0474 132.435 29.4192C137.877 28.383 143.501 27.7909 149.125 26.9027C150.214 26.7547 154.568 26.4587 156.926 25.7185C156.926 26.1626 156.926 26.4587 156.926 26.6067ZM70.0271 48.8105C70.7528 48.6625 71.6599 48.3664 72.3856 48.0704C75.2883 47.7743 78.1909 47.0342 81.0936 46.5901C85.0848 45.998 89.2574 45.1099 93.2486 44.5178C101.231 43.1855 109.395 42.2974 117.377 40.9651C124.997 39.7809 132.435 37.5606 139.329 34.6001C145.134 32.0836 151.665 30.0113 157.108 26.9027C157.108 27.0508 157.108 27.3468 157.108 27.4948C156.926 27.9389 155.838 28.235 155.475 28.531C150.576 31.1955 145.134 32.8238 140.417 35.3402C133.16 39.1888 126.267 42.0013 117.74 43.4816C110.12 44.8138 102.501 45.85 94.8813 46.5901C86.899 47.3302 78.9166 48.0704 70.9342 48.6625C70.5714 48.8105 70.2086 48.8105 70.0271 48.8105ZM110.846 54.2874C110.483 53.8434 110.483 53.2513 110.665 52.8072C111.027 52.2151 111.572 51.919 112.116 51.623C113.204 51.0309 114.837 50.5868 116.107 51.3269C117.014 51.919 116.833 52.9552 116.651 53.8434C116.47 54.1394 116.289 54.4355 116.107 54.7315C115.744 55.3236 115.019 55.6197 114.293 55.9157C112.842 56.0637 111.39 55.3236 110.846 54.2874ZM171.077 48.2184C170.895 47.7743 170.895 47.3302 170.895 46.8862C170.895 46.4421 171.258 46.146 171.621 45.85C172.165 45.5539 172.891 45.2579 173.617 45.2579C174.524 45.1099 175.249 45.4059 175.975 45.702C176.519 45.998 176.882 46.4421 176.882 47.0342C176.882 47.6263 176.701 48.0704 176.338 48.5144C175.794 49.1065 175.068 49.4026 174.342 49.5506C174.161 49.5506 173.979 49.6987 173.979 49.8467H173.798C173.254 49.8467 172.709 49.5506 172.347 49.2546C171.621 49.1065 171.258 48.6625 171.077 48.2184ZM160.917 50.7348C160.736 50.5868 160.554 50.5868 160.373 50.7348C160.373 50.7348 160.373 50.7348 160.192 50.8829C157.289 50.7348 153.298 49.1065 154.568 46.4421C155.656 44.2217 158.559 43.0375 161.28 43.4816C162.731 43.7776 163.82 44.6658 164.364 45.702C164.908 46.7381 164.727 48.0704 163.639 48.8105C163.457 48.9585 163.457 49.2546 163.639 49.4026L163.82 49.5506C163.276 50.1427 162.187 50.5868 160.917 50.7348ZM160.736 51.623C160.736 51.475 160.736 51.475 160.917 51.3269C162.369 51.3269 163.639 50.5868 164.364 49.6987C164.546 49.6987 164.727 49.8467 164.908 49.8467C165.09 49.8467 165.271 49.9947 165.453 50.1427C165.634 50.4388 165.816 50.7348 165.816 51.0309C165.816 51.623 165.453 52.3631 164.908 52.8072C164.908 52.8072 164.908 52.8072 164.727 52.9552L164.546 53.1032C164.546 53.1032 164.364 53.1032 164.364 53.2513H164.183C163.82 53.3993 163.457 53.3993 163.094 53.2513C162.913 53.2513 162.731 53.2513 162.55 53.2513C162.369 53.2513 162.187 53.1032 162.006 53.1032C162.006 53.1032 161.824 53.1032 161.824 52.9552C161.824 52.9552 161.824 52.9552 161.643 52.9552L161.462 52.8072C161.462 52.8072 161.462 52.8072 161.28 52.6592L161.099 52.5111C161.099 52.5111 161.099 52.5111 161.099 52.3631V52.2151C161.099 52.0671 161.099 52.0671 161.099 52.0671C161.099 52.0671 161.099 52.0671 161.099 51.919C160.736 51.771 160.736 51.771 160.736 51.623ZM148.218 54.2874C148.399 53.9914 148.581 53.8434 148.762 53.6953V53.5473C149.488 52.8072 149.851 51.919 150.032 51.0309C150.032 51.0309 150.032 51.0309 150.214 51.0309C150.577 50.8829 150.939 50.7348 151.302 50.7348C151.665 50.7348 151.846 50.7348 152.209 50.7348C152.935 50.8829 153.479 51.1789 154.023 51.623C154.023 51.771 154.205 52.0671 154.568 52.0671C154.749 52.3631 154.931 52.5111 155.112 52.8072C155.656 53.6953 155.656 54.7315 154.568 55.3236C154.386 55.4716 154.386 55.6197 154.568 55.6197C152.935 57.248 148.762 56.6558 148.218 54.2874ZM139.691 51.623C139.51 49.9947 140.417 48.3664 142.231 47.4783C144.408 46.4421 147.13 47.0342 148.581 48.6625C149.851 50.1427 149.125 52.0671 147.855 53.3993C147.674 53.5473 147.674 53.6953 147.855 53.8434C146.404 54.8795 144.408 55.0276 142.776 54.5835C141.143 53.9914 140.054 52.8072 139.691 51.623ZM126.629 55.7677C126.448 54.8795 126.629 53.8434 127.174 53.1032C128.262 51.919 130.258 51.3269 132.072 51.771C133.705 52.0671 135.156 53.1032 134.43 54.5835C134.43 54.7315 134.43 55.0276 134.793 55.0276C134.975 55.0276 135.156 55.0276 135.337 54.8795C135.337 54.7315 135.337 54.5835 135.337 54.4355C135.7 55.6197 134.068 56.6558 132.798 57.2479C131.346 57.84 129.351 58.4322 127.899 57.692C127.174 57.0999 126.629 56.3598 126.629 55.7677ZM133.886 77.8235C134.068 77.8235 134.068 77.6755 134.068 77.6755C134.249 77.6755 134.249 77.6755 134.43 77.6755H134.612H134.793C134.975 77.6755 134.975 77.6755 135.156 77.8235C135.156 77.8235 135.337 77.8235 135.337 77.9715C135.519 77.9715 135.519 78.1195 135.7 78.1195C135.7 78.1195 135.7 78.1195 135.882 78.2676C135.882 78.2676 136.063 78.4156 136.063 78.5636V78.7116C136.063 78.8597 136.245 78.8597 136.245 79.0077V79.1557V79.3037V79.4518C136.245 79.4518 136.245 79.4518 136.245 79.5998C136.063 79.5998 136.063 79.7478 135.882 79.7478C135.7 79.7478 136.063 79.7478 135.882 79.7478H135.7C135.519 79.7478 135.337 80.0439 135.337 80.1919V80.3399C135.337 80.3399 135.337 80.3399 135.156 80.3399C134.975 80.3399 135.156 80.3399 134.975 80.3399C134.793 80.3399 134.612 80.3399 134.612 80.1919C134.43 80.1919 134.43 80.0439 134.249 80.0439C134.249 80.0439 134.068 80.0439 134.068 79.8958C133.886 79.8958 133.886 79.7478 133.705 79.7478C133.705 79.7478 133.705 79.5998 133.523 79.5998C133.523 79.5998 133.523 79.4518 133.342 79.4518C133.342 79.3037 133.16 79.3037 133.16 79.1557V79.0077V78.8597V78.7116V78.5636C133.16 78.5636 133.16 78.5636 133.16 78.4156V78.2676C133.16 78.2676 133.16 78.2676 133.16 78.1195C133.16 77.9715 133.342 77.9715 133.342 77.8235C133.342 77.8235 133.342 77.6755 133.523 77.6755C133.705 77.9715 133.705 77.9715 133.886 77.8235ZM125.904 75.6031C126.811 75.159 128.081 75.159 128.988 75.6031C129.713 76.1952 130.258 76.9353 130.439 77.6755C130.439 77.8235 130.802 77.9715 130.983 77.9715C131.165 79.0077 130.439 79.8958 129.351 80.4879C128.262 81.08 127.174 81.3761 125.904 81.2281C124.815 81.2281 123.908 80.636 123.727 79.7478C123.364 78.1195 124.271 76.4913 125.904 75.6031ZM122.82 76.1952C123.001 76.1952 123.182 76.1952 123.545 76.1952C123.001 76.7873 122.82 77.5274 122.638 78.1195C122.457 77.5274 122.275 76.7873 121.731 76.3432C121.55 76.1952 121.368 76.0472 121.187 75.8991C121.731 76.0472 122.275 76.1952 122.82 76.1952ZM114.474 79.4518C116.107 78.8597 117.74 77.6755 117.377 76.1952C117.559 76.0472 117.74 75.7511 117.921 75.4551C119.373 75.6031 120.643 76.1952 121.187 77.2314C121.913 78.2676 121.731 79.4518 121.187 80.4879C120.643 81.3761 119.554 81.9682 118.466 82.1162C117.377 82.2643 116.289 82.2642 115.2 81.8202C114.656 81.6721 114.293 81.3761 114.112 80.932C113.749 80.4879 113.749 80.0439 113.567 79.5998C113.749 79.5998 114.112 79.4518 114.474 79.4518ZM108.306 76.4912C108.125 75.7511 108.306 75.011 108.669 74.4189C109.032 74.5669 109.213 74.1228 109.032 73.9748C109.213 73.6788 109.395 73.5307 109.576 73.3827C110.846 72.0505 113.204 71.3104 115.019 72.4946C115.744 72.9386 116.289 73.5307 116.651 74.1228C116.833 74.2709 116.833 74.5669 116.833 74.7149C116.651 74.863 116.651 75.159 116.833 75.3071C116.833 75.4551 116.651 75.6031 116.47 75.7511C116.289 75.8991 116.289 76.1952 116.47 76.3432C116.47 76.3432 116.651 76.3432 116.651 76.4912C116.651 77.8235 114.837 78.7116 113.386 79.0077C112.66 79.1557 111.935 79.3037 111.027 79.1557C110.12 79.0077 109.213 78.4156 108.669 77.8235C108.488 77.5274 108.306 77.2314 108.125 76.9353C108.488 76.6393 108.488 76.4912 108.306 76.4912ZM93.7928 72.4946C95.607 72.6426 97.4212 72.7906 99.4168 73.0867C101.775 73.3827 105.404 73.2347 107.762 74.1228C107.399 74.715 107.218 75.4551 107.218 76.1952C106.311 76.0472 105.404 75.8991 104.678 75.7511C103.045 75.4551 101.594 75.159 100.142 74.7149C97.9654 74.1228 95.7884 73.3827 93.7928 72.4946ZM114.837 101.211C114.656 101.211 114.656 101.211 114.837 101.211C109.395 99.7312 104.496 97.5109 100.142 94.5503C96.5141 91.8859 93.6114 88.7774 90.1645 85.8169C86.5361 82.7083 82.3635 80.0439 78.7352 77.2314C75.6511 75.011 72.3856 73.0867 68.7572 71.7544C64.0404 69.8301 59.1421 67.9058 54.2438 65.9815C51.5226 64.7972 48.257 63.9091 45.3544 62.7249L45.1729 62.5769C44.9915 62.4288 44.9915 62.4288 44.8101 62.2808C45.5358 62.4288 46.08 62.5769 46.8057 62.7249C51.3411 63.9091 55.8766 65.2413 60.412 66.8696C61.8634 67.3137 63.3147 67.9058 64.766 68.3499C66.5802 69.238 68.3944 69.9781 70.2086 70.8663C73.1112 72.1985 75.6511 73.9748 78.1909 75.7511C83.6334 79.3037 89.2574 82.8563 93.2486 87.5932C93.43 87.7412 93.6114 87.5932 93.43 87.4451C89.6202 82.7083 83.8149 79.0077 78.3723 75.4551C75.6511 73.6788 72.9298 71.7544 69.8457 70.4222C69.3015 70.1262 68.5758 69.8301 68.0315 69.5341C75.2882 72.1985 82.3635 75.159 87.4432 80.0439C92.5229 84.7807 96.6955 89.9616 102.319 94.2543C105.766 96.9188 110.12 99.4352 114.837 101.211ZM119.917 104.616C111.935 102.544 103.771 98.6951 96.8769 94.8464C90.1645 91.1458 84.3591 86.557 78.5538 82.1162C68.7572 74.715 57.6908 68.942 46.2615 63.169C47.35 63.613 48.6199 63.9091 49.7084 64.3532C54.4252 66.1295 58.9607 68.2018 63.6775 69.9781C69.4829 72.1985 74.744 74.4189 79.4608 78.1195C83.0892 80.932 87.0804 83.4484 90.5273 86.409C97.0583 92.0339 102.319 97.2148 111.209 100.323C114.112 101.36 117.196 102.1 120.461 102.84C120.824 102.988 121.005 102.988 121.368 103.136C122.82 103.432 124.271 103.876 125.722 104.172C125.904 104.172 125.904 104.172 126.085 104.32C126.992 104.616 128.081 104.764 128.988 105.06C129.351 105.208 129.713 105.208 129.895 105.356C132.979 106.096 136.063 106.984 138.422 108.465C138.059 108.613 137.877 108.761 137.514 108.909C136.063 109.353 135.337 108.761 134.068 108.317C133.342 108.021 132.435 107.873 131.709 107.725V107.577C127.536 106.392 123.727 105.504 119.917 104.616ZM96.3327 99.5832C89.8016 97.5109 83.9963 94.5504 78.0095 91.1458C74.3812 88.9254 70.5714 86.853 66.7616 84.6327C62.7704 82.4123 60.0492 79.5998 57.1465 76.4912C54.4252 73.3827 51.8854 70.1262 48.9827 67.1656C47.8942 65.9814 46.9871 64.7972 45.8986 63.7611C50.9783 67.1657 55.3323 71.4584 59.6863 75.159C65.3103 80.0439 71.2971 84.4846 77.6467 88.6293C83.9963 92.478 89.6202 96.6227 96.3327 99.5832ZM95.4256 98.8431C88.3503 95.5865 82.3635 90.8497 76.0139 86.853C68.9386 82.4123 63.1333 77.2314 56.9651 72.0505C54.0624 69.5341 51.1597 66.8696 47.8942 64.5012C59.6863 70.5702 70.9342 76.9353 81.0936 84.7807C86.5361 88.9254 92.1601 93.2181 98.6911 96.3267C104.496 99.1391 110.665 102.1 117.196 104.172C112.479 103.284 107.762 102.396 103.045 101.36C101.412 101.063 99.7796 100.619 98.1468 100.175C97.2398 99.7312 96.3327 99.2872 95.4256 98.8431ZM37.1906 59.4683C37.5534 59.4683 38.0977 59.6164 38.4605 59.6164C38.8233 59.7644 39.1862 60.0604 39.549 60.2085C39.9118 60.3565 40.2747 60.6525 40.6375 60.8006C41.5446 61.3927 42.4517 61.8367 43.3588 62.1328C43.903 62.4288 44.4473 62.7249 44.9915 63.0209C47.1685 65.0933 48.9827 67.4617 50.7969 69.5341C53.5182 72.7906 56.2394 76.0472 59.1421 79.1557C64.4032 84.7807 72.2041 88.0372 79.098 92.1819C85.0848 95.8826 91.6158 98.6951 98.6911 100.767C105.948 103.432 113.749 104.764 121.55 106.096C121.731 106.096 121.731 105.948 121.55 105.8C115.019 104.616 108.488 103.432 102.138 101.508C102.319 101.508 102.682 101.656 102.864 101.656C111.209 103.284 119.736 104.764 127.899 106.836C121.913 105.8 115.563 105.652 109.395 105.06C100.868 104.172 91.9787 102.248 84.9034 98.103C81.4564 96.0306 78.3723 93.5142 75.1068 91.5898C71.4785 89.3695 67.6687 87.4451 64.0404 85.2248C57.3279 80.932 52.7925 75.307 48.257 69.5341C45.173 65.6854 41.726 61.9848 37.1906 59.4683ZM51.3411 18.4653C49.527 21.8699 47.1685 24.9784 44.2659 27.9389C41.0003 31.1955 37.7348 34.304 35.3764 38.1527C35.3764 38.3007 35.3764 38.3007 35.5578 38.3007C33.3808 39.6329 31.2038 41.1132 29.3896 42.7415L29.2082 42.8895L29.3896 42.5934C31.2038 40.6691 32.8366 38.5967 34.2879 36.3764C36.8277 32.5277 40.2747 29.5672 43.3588 26.0146C46.9871 22.0179 49.7084 17.7252 51.704 13.1364C52.6111 10.916 53.1553 8.54758 54.0624 6.3272C54.6067 4.84695 55.1509 3.36669 55.3323 1.73841C55.5137 1.73841 55.6952 1.88644 55.6952 2.03447C56.058 2.33052 55.3323 4.40287 55.3323 4.69892C55.1509 5.58708 54.9695 6.47523 54.7881 7.36338C54.2438 10.0278 53.3367 12.6923 52.4296 15.3568C52.0668 16.3929 51.704 17.4291 51.3411 18.4653ZM38.0977 36.8204C37.372 37.2645 36.4649 37.7086 35.7392 38.1527C38.0977 34.156 41.726 30.8994 45.1729 27.4948C47.1685 25.4225 48.9827 23.0541 50.6155 20.6857C50.4341 20.9817 50.4341 21.2778 50.2526 21.5738C49.1641 23.9422 47.5314 25.4225 45.7172 27.3468C42.9959 30.3073 41.3632 33.8599 38.0977 36.8204ZM125.178 8.84363C121.55 10.0278 118.466 11.9522 114.837 13.5804C110.665 15.3568 106.129 16.0969 101.594 16.837C98.1469 17.4291 94.3371 17.8732 91.0716 19.0574C87.6246 20.3896 84.722 22.61 82.0007 24.6824C76.5582 28.9751 71.8413 33.8599 66.5802 38.4487C65.4917 39.3369 64.4032 40.225 63.3147 41.1132C60.0492 43.4816 56.6022 45.702 53.1553 47.7743C50.2526 49.4026 47.35 51.3269 43.903 52.3631C44.4473 51.919 44.9915 51.623 45.5358 51.1789C52.0668 46.4421 58.9607 42.1494 65.1289 37.2645C70.7528 32.8238 74.744 27.0508 80.5494 22.758C86.899 18.0212 94.6999 15.5048 103.045 14.3206C106.673 13.8765 110.665 13.8765 114.293 12.9883C117.559 11.9522 121.731 8.84363 125.178 8.84363C125.178 8.69561 125.178 8.69561 125.178 8.84363ZM69.6643 31.7876C68.7572 32.6757 67.6687 33.5639 66.7616 34.452C59.6863 37.8566 51.3411 39.4849 43.5402 40.8171C38.8233 41.7053 34.2879 43.1855 29.9339 45.1099C30.841 44.3697 31.9295 43.7776 32.8366 43.0375C37.1906 40.3731 42.0889 38.4487 47.1685 36.8204C52.2482 35.1922 57.3279 34.008 62.2262 32.0836C64.4032 31.1955 66.5802 30.4553 68.9386 29.8632C70.2086 29.5672 71.4785 29.1231 72.7484 28.531C71.8413 29.5672 70.7528 30.6034 69.6643 31.7876ZM126.811 8.99166C123.001 11.6561 118.828 14.0245 114.112 15.3568C109.758 16.541 105.404 17.5771 101.05 18.9094C94.1557 20.9817 86.3547 22.758 80.3679 26.4587C83.452 23.7942 86.899 20.9817 91.0716 19.3534C94.8813 17.7252 99.7796 17.2811 104.134 16.541C108.125 15.9489 111.935 15.2087 115.563 13.5804C119.191 11.9522 122.457 9.87981 126.448 8.69561C126.267 8.84364 126.629 8.99166 126.811 8.99166ZM126.992 10.1759C124.634 11.064 122.638 12.3962 120.28 13.2844C119.736 13.4324 119.191 13.7285 118.828 13.8765C121.731 12.5443 124.452 10.916 126.992 8.99166C127.174 9.43574 127.355 9.87981 126.992 10.1759ZM59.5049 48.0704C60.2306 47.7743 60.9563 47.6263 61.5005 47.3302C64.5846 46.2941 67.4873 45.2579 70.2086 43.9257C73.1112 42.5934 76.0139 40.9651 78.3723 39.0408C82.9078 36.6724 87.2618 34.156 91.7972 31.7876C98.6911 28.235 104.315 23.4982 111.027 19.7975C114.112 18.0212 117.196 16.541 120.28 14.9127C120.098 15.0607 119.917 15.0607 119.917 15.2087C117.014 16.985 113.93 18.4653 111.027 20.2416C98.5097 27.9389 86.899 37.1165 72.7484 43.1855C68.3944 44.9618 64.0404 46.5901 59.5049 48.0704ZM69.6643 43.9257C68.7572 44.3697 67.6687 44.6658 66.5802 45.1099C70.2086 43.4816 73.6555 41.7053 77.2838 39.7809C74.9254 41.4092 72.3856 42.7415 69.6643 43.9257ZM53.6996 49.4026C59.3235 46.5901 64.9474 43.7776 70.0271 40.225C75.1068 36.6724 79.4608 32.8237 84.9034 29.5672C89.9831 26.4587 95.607 24.3863 101.05 22.0179C106.311 19.7975 111.39 17.2811 116.833 15.0607C119.191 14.1725 121.55 13.1364 123.727 12.1002C124.815 11.5081 125.722 11.064 126.811 10.4719C126.267 11.212 125.541 11.8041 124.634 12.3962C124.271 12.6923 123.908 12.8403 123.545 12.9883C119.191 15.3568 114.656 17.4291 110.483 19.7975C105.766 22.462 101.412 25.8666 96.8769 28.679C92.1601 31.6395 86.899 33.8599 82.0007 36.6724C81.6379 36.8204 81.275 37.1165 80.9122 37.2645C82.3635 36.2283 83.6335 35.0441 85.0848 33.8599C94.8813 25.7185 107.581 20.6857 119.554 15.0607C119.736 15.0607 119.554 14.7647 119.373 14.9127C107.943 20.2416 95.9698 24.9784 86.3547 32.5277C84.1777 34.156 82.3635 36.0803 80.1865 37.7086C73.6555 41.2612 67.1245 44.8138 60.0492 47.4783C57.8722 48.2184 55.6952 48.8105 53.6996 49.4026ZM52.2482 49.8467C55.1509 48.2184 58.0536 46.2941 60.412 44.2217C63.6775 41.4092 66.5802 38.7448 70.0271 36.0803C73.1112 33.7119 75.1068 30.7514 78.1909 28.383C84.722 23.3501 94.6999 21.2778 103.045 18.7613C107.581 17.4291 112.297 16.541 116.47 14.9127C114.112 15.9489 111.753 16.985 109.395 18.0212C103.045 20.9817 96.1513 23.3501 89.8016 26.6067C83.8149 29.7152 78.5538 33.4159 73.2927 37.4125C67.3059 42.1493 60.2306 45.702 53.3367 49.4026V49.5506C53.3367 49.5506 53.3367 49.5506 53.5182 49.5506C53.1553 49.5506 52.7925 49.6987 52.2482 49.8467ZM49.3456 50.8829C47.35 51.771 45.3544 52.3631 43.1774 52.8072L43.3588 52.6592C45.5358 52.0671 47.7128 51.0309 49.527 49.9947C53.3367 47.9223 56.9651 45.85 60.5934 43.4816C60.9563 43.3336 61.1377 43.0375 61.5005 42.7415C58.4164 45.702 54.7881 48.2184 50.7969 50.2908C50.2526 50.4388 49.8898 50.5868 49.3456 50.7348C49.1641 50.5868 49.3456 50.7348 49.3456 50.8829ZM41.3632 53.9914C41.726 53.6953 42.0889 53.3993 42.6331 53.2513C43.7216 53.1032 44.8101 52.8072 45.8986 52.5111C44.2659 52.9552 42.8145 53.3993 41.3632 53.9914ZM32.8366 47.0342C37.7348 45.2579 42.9959 44.9618 48.257 43.9257C51.8854 43.1855 55.1509 42.0013 58.4164 40.6691C55.3323 42.8895 52.0668 44.9618 48.9827 47.1822C46.6243 48.8105 44.2659 50.7348 41.726 52.6592C41.5446 52.6592 41.3632 52.8072 41.1818 52.8072C41.0003 52.8072 41.0003 52.9552 41.1818 52.9552H41.3632C40.0933 53.8434 38.8233 54.5835 37.372 55.3236C36.4649 55.6197 35.5578 55.9157 34.6507 56.2118C34.8322 56.0637 34.6507 55.9157 34.4693 56.0637C31.5666 57.396 27.7569 57.544 24.4914 57.8401C20.5002 58.1361 16.6904 57.544 12.6992 57.544C12.5178 57.544 12.3364 57.8401 12.6992 57.8401C16.6904 57.9881 20.5002 58.4321 24.4914 58.1361C26.1241 57.9881 27.7569 57.84 29.3896 57.692C29.3896 57.692 29.3896 57.692 29.2082 57.692C29.0268 57.692 29.2082 57.692 29.0268 57.692C27.5755 57.9881 26.1241 58.2841 24.6728 58.5802C19.4117 58.5802 14.332 58.2841 9.07087 57.8401C11.0665 56.9519 13.0621 56.0637 15.0576 55.1756C14.6948 55.4716 14.332 55.6197 13.9691 55.7677C13.6063 56.0637 13.2435 56.2118 12.8806 56.5078C12.5178 56.6558 12.155 56.9519 11.9736 57.2479V57.396C12.155 57.544 12.155 57.544 12.5178 57.544C12.5178 57.544 12.5178 57.544 12.5178 57.396C12.5178 57.396 12.5178 57.396 12.3364 57.396C12.3364 57.396 12.3364 57.396 12.155 57.396C12.3364 57.0999 12.6992 56.9519 13.0621 56.8039C13.4249 56.6558 13.7877 56.3598 14.1506 56.2118C14.8762 55.6197 15.7833 55.1756 16.6904 54.5835C16.6904 54.5835 16.6904 54.5835 16.6904 54.4355C16.8718 54.2874 17.0532 54.2874 17.2347 54.1394C17.2347 54.2874 17.4161 54.2874 17.5975 54.2874H17.7789C17.9603 53.9914 18.3232 53.8434 18.5046 53.5473C23.4029 51.0309 28.1197 48.9585 32.8366 47.0342ZM25.3984 48.3664C26.4869 47.6263 27.7569 47.1822 29.2082 46.7381C31.0224 46.2941 32.6551 45.702 34.4693 45.1099C38.4605 43.9257 42.4517 43.9257 46.4429 43.6296C46.8057 43.6296 46.9871 43.4816 47.35 43.4816C46.9871 43.6296 46.4429 43.6296 46.08 43.7776C41.5446 44.5178 37.0092 44.9618 32.6551 46.5901C28.4825 48.0704 24.6728 49.8467 20.863 51.919C21.4073 51.475 21.7701 51.0309 22.3143 50.5868C23.2214 49.6987 24.3099 48.9585 25.3984 48.3664ZM28.664 45.998C34.2879 43.3336 40.4561 41.4092 46.8057 40.373C50.7969 39.6329 54.7881 38.7448 58.7793 37.4125C61.3191 36.6724 63.8589 35.7843 66.2174 34.7481C64.5846 36.0803 62.9519 37.4125 61.3191 38.5967C59.1421 39.6329 56.7837 40.077 54.6067 40.9651C51.3411 42.2974 47.7128 43.0375 44.0844 43.1855C40.4561 43.3336 37.1906 43.6296 33.7436 44.6658C31.9295 45.2579 30.2967 45.702 28.4825 46.2941C28.1197 46.4421 27.7569 46.5901 27.394 46.7381C27.7569 46.7381 28.1197 46.4421 28.664 45.998ZM46.4429 35.7843C55.6952 32.6757 65.3103 30.6034 74.1997 27.1988C73.8369 27.4948 73.6555 27.7909 73.4741 27.9389C71.6599 28.9751 69.3015 29.4192 67.3059 30.0113C64.9474 30.7514 62.589 31.6395 60.2306 32.5277C55.5137 34.304 50.4341 35.3402 45.5358 36.9685C40.8189 38.4487 36.4649 40.373 32.4737 42.8895C31.0224 43.7776 29.7525 44.6658 28.4825 45.702C27.9383 45.998 27.394 46.146 27.0312 46.4421C32.8366 42.1494 39.0048 38.3007 46.4429 35.7843ZM31.0224 42.2974C35.0136 38.8928 39.9118 36.6724 44.9915 34.452C50.2526 32.2316 55.8766 30.6034 61.6819 29.4192C66.3988 28.531 70.9342 27.9389 75.2882 26.0146C75.1068 26.3106 74.744 26.4587 74.5626 26.7547C65.1289 30.3073 54.9695 32.3797 45.5358 35.7843C38.6419 38.1527 32.8366 41.8533 27.2126 45.702C27.2126 45.5539 27.394 45.5539 27.394 45.4059C27.7569 45.1099 27.9383 44.8138 28.3011 44.6658C28.3011 44.8138 28.4825 44.9618 28.664 44.8138C28.664 44.6658 28.8454 44.3697 28.8454 44.2217C29.571 43.6296 30.2967 42.8895 31.0224 42.2974ZM50.0712 6.17918C48.6199 7.80746 47.5314 9.43573 46.4429 11.064C43.903 14.4686 41.3632 17.8732 39.0048 21.4258C36.8277 24.6824 34.6507 27.9389 33.018 31.3435C31.5666 34.304 30.6596 37.5606 29.0268 40.5211C29.571 37.7086 30.4781 34.8961 31.7481 32.2316C33.7436 28.383 36.2835 24.6824 38.6419 20.8337C41.0003 16.837 43.903 13.1364 47.1685 9.58376C47.8942 8.39956 48.9827 7.36338 50.0712 6.17918ZM53.6996 1.88644C52.9739 5.58708 51.1597 9.43573 49.1641 12.6923C46.9871 16.3929 44.0844 19.6495 41.726 23.2021C39.3676 27.0508 36.2835 30.4553 33.5622 34.156C31.7481 36.6724 30.1153 39.4849 29.0268 42.4454C28.8454 42.7415 28.4825 42.8895 28.1197 43.0375C28.1197 42.7415 28.3011 42.2974 28.3011 42.0013C28.3011 41.7053 28.4825 41.4092 28.4825 41.1132C30.2967 38.3007 31.3852 35.0441 32.6551 32.0836C34.4693 27.9389 37.372 24.0903 39.9118 20.2416C42.6331 16.3929 45.5358 12.6923 48.257 8.84363C50.0712 6.62325 52.6111 4.5509 53.6996 1.88644ZM54.7881 1.59039C54.4252 3.66274 53.881 5.58707 53.1553 7.5114C52.4296 9.43574 51.8854 11.5081 51.1597 13.4324C49.1641 18.0212 46.2615 22.3139 42.6331 26.3106C39.7304 29.5672 36.4649 32.3797 34.1065 35.9323C32.8366 38.0046 31.3852 40.077 29.571 42.0013C29.9339 40.9651 30.4781 39.7809 31.0224 38.7448C32.2923 36.5244 33.9251 34.304 35.5578 32.2316C38.2791 28.8271 40.4561 25.4225 42.9959 22.0179C45.3544 18.7613 47.8942 15.5048 49.8898 12.1002C51.8854 8.84363 53.1553 5.43905 54.0624 1.73841C54.2438 1.59039 54.6067 1.44236 54.7881 1.59039Z" fill="#323232" />
</svg>
