<svg width="50" height="50" viewBox="0 0 50 50" fill="none" xmlns="http://www.w3.org/2000/svg">
	<path fill-rule="evenodd" clip-rule="evenodd" d="M21.4848 0.797539C22.5823 0.273067 23.7833 0.000854492 24.9998 0.000854492C26.2162 0.000854492 27.4172 0.273067 28.5148 0.797539C29.4823 1.26004 30.3648 2.01504 31.5923 3.06004L31.7873 3.22504C32.3823 3.73254 32.5698 3.88754 32.7598 4.01504C33.2423 4.34004 33.7848 4.56254 34.3523 4.67504C34.5773 4.72004 34.8198 4.74254 35.5998 4.80254L35.8523 4.82254C37.4573 4.95004 38.6173 5.04254 39.6273 5.39754C40.7746 5.8041 41.8167 6.46174 42.6774 7.32245C43.5381 8.18316 44.1957 9.22522 44.6023 10.3725C44.9573 11.3825 45.0473 12.5425 45.1773 14.1475L45.1973 14.4C45.2573 15.18 45.2798 15.425 45.3248 15.6475C45.4373 16.2175 45.6623 16.76 45.9848 17.2425C46.1123 17.43 46.2673 17.6175 46.7748 18.2125L46.9398 18.4075C47.9873 19.6325 48.7398 20.5175 49.2023 21.4825C50.2648 23.7075 50.2648 26.2925 49.2023 28.515C48.7423 29.4825 47.9873 30.365 46.9398 31.5925L46.7748 31.7875C46.4945 32.0976 46.2308 32.4222 45.9848 32.76C45.6598 33.2425 45.4373 33.785 45.3248 34.3525C45.2798 34.5775 45.2598 34.82 45.1973 35.6L45.1748 35.8525C45.0498 37.4575 44.9573 38.6175 44.5998 39.6275C44.1951 40.7755 43.5383 41.8182 42.6779 42.6791C41.8174 43.54 40.775 44.1972 39.6273 44.6025C38.6173 44.9575 37.4573 45.0475 35.8523 45.1775L35.5998 45.1975C35.182 45.2181 34.7656 45.2606 34.3523 45.325C33.783 45.4376 33.2417 45.6619 32.7598 45.985C32.4213 46.2313 32.0959 46.495 31.7848 46.775L31.5923 46.94C30.3673 47.9875 29.4823 48.74 28.5173 49.2025C27.4194 49.7274 26.2179 49.9998 25.001 49.9998C23.7841 49.9998 22.5827 49.7274 21.4848 49.2025C20.5173 48.7425 19.6348 47.9875 18.4073 46.94C18.3423 46.885 18.2773 46.83 18.2123 46.775C17.903 46.4949 17.5792 46.2313 17.2423 45.985C16.7598 45.6611 16.2176 45.4367 15.6473 45.325C15.234 45.2606 14.8176 45.2181 14.3998 45.1975L14.1473 45.175C12.5423 45.05 11.3823 44.9575 10.3723 44.6C9.22443 44.1952 8.1818 43.5384 7.32092 42.6779C6.46003 41.8175 5.80274 40.7752 5.39728 39.6275C5.04228 38.6175 4.94978 37.4575 4.82228 35.8525L4.80228 35.6C4.78174 35.1823 4.73918 34.7658 4.67478 34.3525C4.56219 33.7833 4.33787 33.242 4.01478 32.76C3.76885 32.4213 3.50515 32.0959 3.22478 31.785L3.05978 31.5925C2.01478 30.3675 1.25978 29.4825 0.797281 28.5175C0.272422 27.4196 0 26.2182 0 25.0013C0 23.7844 0.272422 22.5829 0.797281 21.485C1.25978 20.5175 2.01478 19.635 3.05978 18.4075L3.22478 18.2125C3.50494 17.9033 3.76864 17.5795 4.01478 17.2425C4.33978 16.76 4.56228 16.2175 4.67478 15.6475C4.71978 15.4225 4.74228 15.18 4.80228 14.4L4.82228 14.1475C4.94978 12.5425 5.04228 11.3825 5.39728 10.3725C5.80242 9.22443 6.45957 8.18163 7.32048 7.32073C8.18138 6.45983 9.22417 5.80268 10.3723 5.39754C11.3823 5.04254 12.5423 4.95004 14.1473 4.82254L14.3998 4.80254C14.8177 4.78342 15.2342 4.74085 15.6473 4.67504C16.2173 4.56254 16.7598 4.33754 17.2423 4.01504C17.4298 3.88754 17.6173 3.73254 18.2123 3.22504L18.4073 3.06004C19.6323 2.01504 20.5198 1.26004 21.4848 0.797539ZM26.8923 4.19254C26.3013 3.9102 25.6547 3.76367 24.9998 3.76367C24.3449 3.76367 23.6982 3.9102 23.1073 4.19254C22.6448 4.41254 22.1573 4.81004 20.6548 6.08754L20.5798 6.15004C20.0873 6.57004 19.7298 6.87754 19.3373 7.14004C18.4398 7.74004 17.4348 8.15754 16.3748 8.36504C15.9123 8.45754 15.4423 8.49504 14.7948 8.54754L14.6998 8.55504C12.7323 8.71254 12.1098 8.77754 11.6248 8.94754C10.3748 9.39004 9.38978 10.3725 8.94978 11.625C8.77478 12.11 8.71228 12.7325 8.55478 14.7L8.54728 14.795C8.49728 15.4425 8.45728 15.9125 8.36728 16.375C8.15728 17.435 7.74228 18.44 7.14228 19.3375C6.87728 19.73 6.56978 20.0875 6.14978 20.5825L6.08728 20.655C4.80978 22.155 4.41228 22.645 4.19228 23.105C3.90956 23.6963 3.76281 24.3434 3.76281 24.9988C3.76281 25.6542 3.90956 26.3013 4.19228 26.8925C4.41228 27.355 4.80978 27.8425 6.08728 29.345L6.14978 29.42C6.56978 29.9125 6.87728 30.27 7.13978 30.6625C7.73978 31.56 8.15728 32.565 8.36478 33.6225C8.45728 34.0875 8.49478 34.5575 8.54728 35.205L8.55478 35.3C8.71228 37.2675 8.77728 37.89 8.94728 38.375C9.38978 39.625 10.3723 40.61 11.6248 41.05C12.1098 41.225 12.7323 41.2875 14.6998 41.445L14.7948 41.4525C15.4423 41.5025 15.9123 41.5425 16.3748 41.6325C17.4348 41.8425 18.4398 42.2575 19.3373 42.8575C19.7298 43.1225 20.0873 43.43 20.5823 43.85L20.6548 43.9125C22.1548 45.19 22.6448 45.5875 23.1048 45.8075C23.6961 46.0903 24.3431 46.237 24.9985 46.237C25.6539 46.237 26.301 46.0903 26.8923 45.8075C27.3548 45.5875 27.8423 45.19 29.3448 43.9125L29.4198 43.85C29.9123 43.43 30.2698 43.1225 30.6623 42.86C31.5582 42.2599 32.5643 41.8435 33.6223 41.635C34.1458 41.5438 34.6742 41.4829 35.2048 41.4525L35.2998 41.445C37.2673 41.2875 37.8898 41.2225 38.3748 41.0525C39.6248 40.61 40.6098 39.6275 41.0498 38.375C41.2248 37.89 41.2873 37.265 41.4448 35.3L41.4523 35.205C41.4818 34.6745 41.5419 34.1461 41.6323 33.6225C41.8423 32.565 42.2573 31.56 42.8573 30.6625C43.1223 30.27 43.4298 29.9125 43.8498 29.4175L43.9123 29.345C45.1898 27.845 45.5873 27.355 45.8073 26.895C46.09 26.3038 46.2367 25.6567 46.2367 25.0013C46.2367 24.3459 46.09 23.6988 45.8073 23.1075C45.5873 22.645 45.1898 22.1575 43.9123 20.655L43.8498 20.58C43.4298 20.0875 43.1223 19.73 42.8598 19.3375C42.2595 18.4408 41.8431 17.4339 41.6348 16.375C41.5437 15.8523 41.4827 15.3248 41.4523 14.795L41.4448 14.7C41.2873 12.7325 41.2223 12.11 41.0523 11.625C40.6098 10.375 39.6273 9.39004 38.3748 8.95004C37.8898 8.77504 37.2648 8.71254 35.2998 8.55504L35.2048 8.54754C34.6743 8.51779 34.1459 8.45769 33.6223 8.36754C32.5643 8.15892 31.5583 7.74255 30.6623 7.14254C30.2698 6.87754 29.9123 6.57004 29.4173 6.15004L29.3448 6.08754C27.8448 4.81004 27.3548 4.41254 26.8948 4.19254H26.8923Z" fill="#EFC65A" />
	<path fill-rule="evenodd" clip-rule="evenodd" d="M33.8571 16.1425C34.0319 16.3173 34.1706 16.5248 34.2653 16.7533C34.3599 16.9817 34.4086 17.2265 34.4086 17.4737C34.4086 17.721 34.3599 17.9658 34.2653 18.1942C34.1706 18.4226 34.0319 18.6302 33.8571 18.805L18.8046 33.855C18.4487 34.1922 17.9752 34.3772 17.4849 34.3707C16.9947 34.3642 16.5263 34.1667 16.1794 33.8201C15.8326 33.4736 15.6346 33.0054 15.6276 32.5151C15.6207 32.0249 15.8052 31.5513 16.1421 31.195L31.1946 16.145C31.3694 15.9702 31.577 15.8315 31.8054 15.7368C32.0338 15.6422 32.2786 15.5935 32.5259 15.5935C32.7731 15.5935 33.0179 15.6422 33.2463 15.7368C33.4748 15.8315 33.6823 15.9702 33.8571 16.145V16.1425Z" fill="#EFC65A" />
	<path d="M33.78 31.2725C33.7906 31.6087 33.7336 31.9435 33.6123 32.2571C33.491 32.5708 33.3079 32.8569 33.0739 33.0984C32.8399 33.3399 32.5597 33.5319 32.2501 33.663C31.9404 33.7942 31.6075 33.8618 31.2713 33.8618C30.935 33.8618 30.6021 33.7942 30.2924 33.663C29.9828 33.5319 29.7026 33.3399 29.4686 33.0984C29.2346 32.8569 29.0515 32.5708 28.9302 32.2571C28.8089 31.9435 28.7519 31.6087 28.7625 31.2725C28.7831 30.6209 29.0564 30.0028 29.5246 29.5491C29.9929 29.0954 30.6193 28.8418 31.2713 28.8418C31.9232 28.8418 32.5496 29.0954 33.0179 29.5491C33.4861 30.0028 33.7594 30.6209 33.78 31.2725ZM21.2375 18.7275C21.2481 19.0637 21.1911 19.3985 21.0698 19.7121C20.9485 20.0258 20.7654 20.3119 20.5314 20.5534C20.2974 20.7949 20.0172 20.9869 19.7076 21.118C19.3979 21.2492 19.065 21.3168 18.7288 21.3168C18.3925 21.3168 18.0596 21.2492 17.7499 21.118C17.4403 20.9869 17.1601 20.7949 16.9261 20.5534C16.6921 20.3119 16.509 20.0258 16.3877 19.7121C16.2664 19.3985 16.2094 19.0637 16.22 18.7275C16.2406 18.0759 16.5139 17.4578 16.9821 17.0041C17.4504 16.5504 18.0768 16.2968 18.7288 16.2968C19.3807 16.2968 20.0071 16.5504 20.4754 17.0041C20.9436 17.4578 21.2169 18.0759 21.2375 18.7275Z" fill="#EFC65A" />
</svg>
