<svg width="61" height="42" viewBox="0 0 61 42" fill="none" xmlns="http://www.w3.org/2000/svg">
	<path d="M0.5 0.25V4H36.125V32.125H24.5825C23.7463 28.9019 20.8475 26.5 17.375 26.5C13.9025 26.5 11.0037 28.9019 10.1675 32.125H8V22.75H4.25V35.875H10.1675C11.0037 39.0981 13.9025 41.5 17.375 41.5C20.8475 41.5 23.7463 39.0981 24.5825 35.875H40.1675C41.0037 39.0981 43.9025 41.5 47.375 41.5C50.8475 41.5 53.7463 39.0981 54.5825 35.875H60.5V20.5825L60.3819 20.2881L56.6319 9.03813L56.225 7.75H39.875V0.25H0.5ZM2.375 7.75V11.5H19.25V7.75H2.375ZM39.875 11.5H53.5269L56.75 21.1094V32.125H54.5825C53.7463 28.9019 50.8475 26.5 47.375 26.5C43.9025 26.5 41.0037 28.9019 40.1675 32.125H39.875V11.5ZM4.25 15.25V19H15.5V15.25H4.25ZM17.375 30.25C19.4694 30.25 21.125 31.9056 21.125 34C21.125 36.0944 19.4694 37.75 17.375 37.75C15.2806 37.75 13.625 36.0944 13.625 34C13.625 31.9056 15.2806 30.25 17.375 30.25ZM47.375 30.25C49.4694 30.25 51.125 31.9056 51.125 34C51.125 36.0944 49.4694 37.75 47.375 37.75C45.2806 37.75 43.625 36.0944 43.625 34C43.625 31.9056 45.2806 30.25 47.375 30.25Z" fill="#EFC65A" />
</svg>
