<svg width="46" height="32" viewBox="0 0 46 32" fill="none" xmlns="http://www.w3.org/2000/svg">
<g clip-path="url(#clip0_3764_1434)">
<path d="M44.9841 4.99111C44.7202 4.02641 44.2056 3.14692 43.4913 2.44023C42.777 1.73353 41.8881 1.22429 40.9131 0.9632C37.3434 0 22.9767 0 22.9767 0C22.9767 0 8.60922 0.0291555 5.03955 0.992355C4.06448 1.25346 3.17555 1.76273 2.46129 2.46946C1.74704 3.17619 1.23237 4.05571 0.96855 5.02044C-0.111192 11.2956 -0.530044 20.8576 0.998199 26.8818C1.26205 27.8465 1.77672 28.726 2.49098 29.4327C3.20523 30.1394 4.09415 30.6486 5.0692 30.9097C8.63887 31.8729 23.006 31.8729 23.006 31.8729C23.006 31.8729 37.3729 31.8729 40.9424 30.9097C41.9175 30.6486 42.8064 30.1394 43.5207 29.4327C44.235 28.726 44.7497 27.8465 45.0135 26.8818C46.1524 20.5977 46.5033 11.0416 44.9841 4.99111Z" fill="#FF0000"/>
<path d="M18.4038 22.7662L30.3221 15.9363L18.4038 9.10645V22.7662Z" fill="white"/>
</g>
<defs>
<clipPath id="clip0_3764_1434">
<rect width="46" height="32" fill="white"/>
</clipPath>
</defs>
</svg>
