<svg width="34" height="32" viewBox="0 0 34 32" fill="none" xmlns="http://www.w3.org/2000/svg">
<g clip-path="url(#clip0_3764_1437)">
<rect width="34" height="32" rx="4" fill="white"/>
<path d="M6.10541 27.9175C5.97241 27.8588 5.87636 27.7929 6.03152 27.661C6.12758 27.5877 6.23102 27.5217 6.33446 27.4557C7.30238 26.8327 8.2112 26.1511 8.80969 25.147C9.31212 24.3114 9.23084 23.8204 8.6028 23.2047C5.10054 19.7306 3.56369 15.5748 4.33211 10.6642C4.76805 7.89366 6.0463 5.49696 7.90826 3.41542C9.03135 2.15477 10.3687 1.13599 11.8317 0.285786C11.9203 0.23448 12.0459 0.219821 12.0607 0.0878929C12.0312 0.0145993 11.9795 0.0365874 11.9351 0.0365874C9.44512 0.0365874 6.95511 -0.0147182 4.4725 0.0512461C2.09333 0.12454 0.039262 1.94955 0.0466507 4.56613C0.0614282 12.2107 0.0466507 19.8552 0.0466507 27.507C0.0466507 29.8818 1.87167 31.868 4.25823 31.956C6.27535 32.0366 8.29247 31.9706 10.317 31.9633C10.4648 31.9706 10.6125 31.9779 10.7603 31.9779H21.4296C24.0896 31.9779 26.7495 31.9926 29.4095 31.9779C31.8773 31.9779 33.8797 29.999 33.8797 27.5583V27.5144V23.2267C33.8797 23.1241 33.9166 23.0141 33.8501 22.9042C33.7171 22.9115 33.6654 23.0215 33.5915 23.0948C32.1581 24.524 30.4661 25.6747 28.6115 26.4883C24.0674 28.4745 19.4421 28.6138 14.7502 27.016C14.3438 26.8694 13.9005 26.8547 13.4794 26.9573C12.8587 27.1113 12.2454 27.2945 11.6322 27.4777C9.82933 28.0348 7.98954 28.284 6.10541 27.9175ZM11.4622 15.5675C11.5878 15.4063 11.6543 15.311 11.7282 15.2157C12.6962 13.999 13.6641 12.7823 14.632 11.5583C14.9128 11.2065 15.1935 10.8474 15.3709 10.4223C15.5778 9.93856 15.3561 9.48414 14.8537 9.30823C14.632 9.24227 14.3956 9.21295 14.1591 9.22761C12.8439 9.22028 11.5214 9.22028 10.2062 9.22761C10.0214 9.22761 9.83672 9.2496 9.65939 9.29357C9.24562 9.39618 8.9944 9.81396 9.09785 10.2317C9.17173 10.5102 9.3934 10.7301 9.67417 10.7961C9.8515 10.8401 10.0362 10.8621 10.2209 10.8547C11.0189 10.8621 11.8243 10.8547 12.6223 10.8621C12.7109 10.8621 12.8218 10.8034 12.8883 10.9353C12.8218 11.0233 12.7553 11.1113 12.6888 11.1919C11.5435 12.6284 10.4057 14.0723 9.2604 15.5089C8.97963 15.868 8.83185 16.2638 9.03874 16.7036C9.24562 17.1433 9.66678 17.2239 10.0953 17.2533C10.4352 17.2752 10.7825 17.2606 11.1297 17.2606C12.3267 17.2606 13.5163 17.2679 14.7133 17.2533C15.3487 17.2459 15.6886 16.8648 15.6221 16.2785C15.5704 15.8167 15.2527 15.5748 14.6616 15.5675C13.6197 15.5602 12.5779 15.5675 11.4622 15.5675ZM20.0332 11.7123C19.1096 10.9134 18.0899 10.8621 17.0925 11.4484C15.8807 12.152 15.4374 13.3027 15.5852 14.6367C15.7255 15.8827 16.2723 16.9015 17.5875 17.3192C18.4076 17.5831 19.1687 17.4878 19.8411 16.9454C20.0184 16.8062 20.0701 16.8355 20.1957 16.9894C20.4395 17.2972 20.8607 17.4145 21.2301 17.2752C21.5996 17.1653 21.8434 16.8282 21.8434 16.447C21.8508 14.9812 21.8582 13.5153 21.8434 12.0494C21.836 11.4631 21.2819 11.0893 20.7055 11.2065C20.3878 11.2725 20.2105 11.4851 20.0332 11.7123ZM25.1536 14.4315C25.124 16.2638 26.6535 17.649 28.5745 17.4585C30.3404 17.2826 31.4857 15.9706 31.4266 14.1163C31.3675 12.284 29.9932 11.0306 28.1091 11.0893C26.3431 11.1406 25.0944 12.5478 25.1536 14.4315ZM24.5034 12.9729C24.5034 11.8222 24.5107 10.6788 24.5034 9.52811C24.5034 8.94176 24.1265 8.57529 23.565 8.58262C23.0182 8.58995 22.6562 8.95642 22.6488 9.52078C22.6414 9.86526 22.6488 10.2024 22.6488 10.5469V16.3737C22.6488 16.8282 22.9296 17.2239 23.299 17.3192C23.8088 17.4585 24.3334 17.158 24.4664 16.6523C24.4886 16.5643 24.5034 16.4763 24.496 16.3811C24.5107 15.245 24.5034 14.109 24.5034 12.9729Z" fill="#FDFEFE"/>
<path d="M10.3094 31.9706C8.29228 31.9706 6.26776 32.0366 4.25064 31.9633C1.86408 31.868 0.0390625 29.8817 0.0390625 27.5144C0.0390625 19.8698 0.05384 12.2253 0.0390625 4.57345C0.0390625 1.95687 2.10052 0.131859 4.4723 0.0658945C6.95491 -6.97412e-05 9.44492 0.0512358 11.9349 0.0512358C11.9793 0.0512358 12.0384 0.0292477 12.0605 0.102541C12.0458 0.23447 11.9128 0.249129 11.8315 0.300434C10.3685 1.15064 9.03115 2.16942 7.90806 3.43007C6.05349 5.51161 4.76785 7.90098 4.33192 10.6788C3.56349 15.5822 5.10773 19.7452 8.6026 23.2194C9.22326 23.8423 9.30453 24.3261 8.80949 25.1616C8.211 26.1658 7.30219 26.8474 6.33426 27.4704C6.23082 27.529 6.12738 27.6023 6.02393 27.6683C5.86877 27.8002 5.96482 27.8662 6.09782 27.9248C6.12738 27.9908 6.16432 28.0494 6.20865 28.108C7.05836 28.8556 7.86373 29.6545 8.69866 30.4168C9.09026 30.7759 9.48186 31.1497 9.85869 31.5235C10.0138 31.6628 10.2725 31.7068 10.3094 31.9706Z" fill="#0180C7"/>
<path d="M10.3095 31.9707C10.2725 31.7142 10.0139 31.6702 9.85876 31.5163C9.48194 31.1352 9.09034 30.7687 8.69873 30.4096C7.86381 29.6473 7.05844 28.8484 6.20873 28.1008C6.1644 28.0422 6.12746 27.9835 6.0979 27.9176C7.98203 28.284 9.82182 28.0348 11.6321 27.4851C12.2453 27.3019 12.8586 27.1187 13.4792 26.9648C13.9004 26.8548 14.3437 26.8768 14.7501 27.0234C19.4346 28.6212 24.0599 28.4746 28.6114 26.4957C30.4659 25.6821 32.158 24.5387 33.5914 23.1095C33.6653 23.0362 33.717 22.9263 33.85 22.9189C33.9165 23.0216 33.8795 23.1315 33.8795 23.2414V27.5291C33.8943 29.9771 31.9141 31.9707 29.4463 31.9927H29.4093C26.7494 32.0074 24.0895 31.9927 21.4295 31.9927H10.7528C10.605 31.978 10.4573 31.9707 10.3095 31.9707Z" fill="#0172B1"/>
<path d="M11.462 15.5676C12.5777 15.5676 13.6269 15.5602 14.6687 15.5676C15.2524 15.5749 15.5702 15.8168 15.6293 16.2785C15.6958 16.8575 15.3559 17.246 14.7205 17.2533C13.5235 17.268 12.3339 17.2606 11.1369 17.2606C10.7897 17.2606 10.4498 17.2753 10.1025 17.2533C9.67396 17.2313 9.2528 17.1434 9.04591 16.7036C8.83903 16.2638 8.9868 15.8681 9.26758 15.5089C10.4054 14.0724 11.5507 12.6285 12.6959 11.1919C12.7624 11.104 12.8289 11.016 12.8954 10.9354C12.8216 10.8108 12.7181 10.8694 12.6294 10.8621C11.8315 10.8548 11.0261 10.8621 10.2281 10.8548C10.0434 10.8548 9.85867 10.8328 9.68134 10.7961C9.26019 10.7009 9.00158 10.2831 9.09763 9.87264C9.16413 9.59413 9.3858 9.36692 9.66657 9.30095C9.8439 9.25698 10.0286 9.23499 10.2133 9.23499C11.5285 9.22766 12.8511 9.22766 14.1663 9.23499C14.4027 9.22766 14.6318 9.25698 14.8608 9.31561C15.3633 9.48419 15.5776 9.94594 15.3781 10.4297C15.2007 10.8474 14.92 11.2066 14.6392 11.5657C13.6713 12.7897 12.7033 14.0064 11.7354 15.2157C11.6541 15.311 11.5802 15.4063 11.462 15.5676Z" fill="#0180C7"/>
<path d="M20.033 11.7123C20.2103 11.4851 20.395 11.2725 20.698 11.2139C21.2817 11.0966 21.8284 11.4704 21.8358 12.0567C21.858 13.5226 21.8506 14.9885 21.8358 16.4544C21.8358 16.8355 21.5846 17.1726 21.2226 17.2826C20.8531 17.4218 20.432 17.3119 20.1881 16.9967C20.0625 16.8428 20.0108 16.8135 19.8335 16.9528C19.1611 17.4951 18.4001 17.5904 17.5799 17.3266C16.2647 16.9014 15.7254 15.8827 15.5776 14.644C15.4224 13.3027 15.8731 12.1594 17.0849 11.4557C18.0897 10.8621 19.1094 10.9134 20.033 11.7123ZM17.4174 14.3875C17.4322 14.71 17.5356 15.0178 17.7277 15.2743C18.1267 15.802 18.8877 15.912 19.4271 15.5162C19.5158 15.4502 19.5971 15.3696 19.6709 15.2743C20.0847 14.7173 20.0847 13.8011 19.6709 13.2441C19.4641 12.9583 19.1389 12.7897 18.7917 12.7823C17.9789 12.731 17.41 13.354 17.4174 14.3875ZM25.1534 14.4315C25.0943 12.5478 26.343 11.1406 28.1163 11.0893C30.0004 11.0306 31.3747 12.284 31.4338 14.1163C31.4929 15.9706 30.3477 17.2826 28.5817 17.4585C26.6533 17.649 25.1238 16.2638 25.1534 14.4315ZM27.0079 14.2555C26.9932 14.622 27.104 14.9812 27.3257 15.2817C27.732 15.8094 28.4931 15.912 29.0251 15.5015C29.1063 15.4429 29.1728 15.3696 29.2393 15.2963C29.6679 14.7393 29.6679 13.8011 29.2467 13.2441C29.0398 12.9656 28.7147 12.7897 28.3675 12.7823C27.5695 12.7384 27.0079 13.3394 27.0079 14.2555ZM24.5032 12.9729C24.5032 14.109 24.5106 15.245 24.5032 16.3811C24.5106 16.9014 24.0968 17.3339 23.5722 17.3485C23.4835 17.3485 23.3875 17.3412 23.2988 17.3192C22.9294 17.2239 22.6486 16.8355 22.6486 16.3737V10.5469C22.6486 10.2024 22.6412 9.86526 22.6486 9.52078C22.656 8.95642 23.018 8.58995 23.5648 8.58995C24.1263 8.58262 24.5032 8.94909 24.5032 9.53544C24.5106 10.6788 24.5032 11.8295 24.5032 12.9729Z" fill="#0180C7"/>
<path d="M17.4176 14.3876C17.4102 13.3542 17.9791 12.7312 18.7845 12.7751C19.1317 12.7898 19.4568 12.9584 19.6637 13.2442C20.0775 13.7939 20.0775 14.7174 19.6637 15.2744C19.2647 15.8022 18.5037 15.9121 17.9643 15.5163C17.8757 15.4504 17.7944 15.3697 17.7205 15.2744C17.5358 15.0179 17.4323 14.7101 17.4176 14.3876ZM27.0081 14.2557C27.0081 13.3468 27.5697 12.7385 28.3677 12.7825C28.7149 12.7898 29.04 12.9657 29.2469 13.2442C29.6681 13.8012 29.6681 14.7467 29.2395 15.2964C28.8258 15.8168 28.0573 15.9048 27.5327 15.4943C27.4514 15.4357 27.3849 15.3624 27.3258 15.2818C27.1042 14.9813 27.0007 14.6221 27.0081 14.2557Z" fill="#FDFEFE"/>
</g>
<defs>
<clipPath id="clip0_3764_1437">
<rect width="34" height="32" rx="4" fill="white"/>
</clipPath>
</defs>
</svg>
