<svg xmlns="http://www.w3.org/2000/svg" xmlns:xlink="http://www.w3.org/1999/xlink" x="0px" y="0px" viewBox="0 0 433 143" style="enable-background:new 0 0 433 143;" xml:space="preserve">
	<path d="M432.9,44.2c-1.4,0.1-2.9,0.1-4.4,0.2c-2.9,0.2-5.8,0.4-8.7,0.7c-4.2,0.4-8.5,0.9-12.6,2.2c-0.5,0.2-1.2,0.4-1.7,0.6 c-3.6,1.4-6,3.8-7.4,7.1c-1,2.3-1.5,4.7-1.9,7.1c-0.8,5.2-1,10.4-1.1,15.7c0,0.8-0.1,1.5-0.1,2.5c-0.3-0.2-0.5-0.3-0.6-0.5 s-0.1-0.4-0.1-0.7c-0.3-3.4-0.5-6.8-0.9-10.2c-0.4-3.7-0.9-7.4-2.1-11c-0.3-0.9-0.6-1.9-1.1-2.8c-1.5-3.4-4.2-5.7-7.9-6.9 c-2.6-0.9-5.2-1.4-7.9-1.7c-6-0.7-12-0.8-17.9-1c-0.3,0-0.6,0-1-0.1c-0.2,0-0.3-0.3-0.5-0.5c0.8-0.1,1.2-0.2,1.7-0.2 c3.7-0.3,7.3-0.5,11-0.8c4-0.4,8-0.9,12-1.9c6.1-1.6,9.8-5.2,11.2-10.8c0.8-3.1,1.2-6.2,1.4-9.3c0.2-4.2,0.4-8.3,0.6-12.5 c0-0.2,0.1-0.4,0.1-0.6c0.5-0.2,0.6,0.2,0.6,0.5c0.1,0.7,0.1,1.4,0.2,2.1c0.3,3.2,0.5,6.5,0.9,9.7c0.4,3.7,1,7.3,2.3,10.8 c0.2,0.5,0.4,1,0.6,1.5c1.5,3.6,4.4,6,8.3,7.3c2.6,0.9,5.3,1.4,8,1.7c6.1,0.7,12.1,0.8,18.1,1h0.9C432.9,43.7,432.9,44,432.9,44.2 L432.9,44.2z">
	</path>
	<path d="M395.3,143H0V1c0-0.6,0.4-1,1-1s1,0.4,1,1v140h391.3L393,89.4c0-0.6,0.4-1,1-1c0,0,0,0,0,0c0.5,0,1,0.4,1,1L395.3,143z">
	</path>
</svg>
