<svg xmlns="http://www.w3.org/2000/svg" xmlns:xlink="http://www.w3.org/1999/xlink" x="0px" y="0px" viewBox="0 0 396.3 240.6" style="enable-background:new 0 0 396.3 240.6;" xml:space="preserve">
	<path d="M63.2,0c0.7,0,0.7,0.4,0.7,0.8C64,1.9,64.1,3,64.1,4.1c0.5,7.3,1.1,14.7,2.1,22c0.6,4.3,1.5,8.7,3.1,12.8 c0.3,0.8,0.6,1.5,1,2.3c2.6,5.8,7.2,9.4,13.2,11.3c3.5,1.1,7.2,1.8,10.8,2.3c6.3,0.8,12.7,1.1,19,1.3c2.7,0.1,5.5,0.2,8.2,0.3 c0.3,0,0.6,0.1,0.9,0.1c0.1,0.7-0.3,0.7-0.7,0.7c-1.1,0.1-2.1,0.2-3.2,0.2c-7.4,0.5-14.8,1.1-22.1,2.1c-4.4,0.6-8.7,1.5-12.9,3.1 c-3,1.1-5.7,2.6-8,4.9c-2.8,2.7-4.4,6-5.6,9.6c-1.1,3.3-1.7,6.7-2.1,10.1c-0.7,5.7-1.1,11.5-1.3,17.3c-0.1,3.5-0.2,7-0.4,10.5 c0,0.2,0,0.4-0.1,0.6c-0.1,0.1-0.3,0.2-0.6,0.3c-0.1-1-0.2-1.8-0.3-2.7c-0.5-6-0.9-12.1-1.5-18.1c-0.5-5.3-1.3-10.5-2.9-15.6 c-0.7-2.5-1.7-4.8-3-7c-2.4-4-5.9-6.7-10.2-8.5c-3.5-1.4-7.1-2.1-10.7-2.7c-4.8-0.7-9.6-1.1-14.5-1.3s-9.8-0.4-14.7-0.6 c-0.3,0-1,0.3-1-0.4c0-0.5,0.6-0.3,0.9-0.4c6.6-0.6,13.2-1,19.8-1.7c5.2-0.5,10.4-1.3,15.5-2.9c2.4-0.7,4.8-1.7,7-2.9 c4.2-2.4,6.9-6,8.6-10.4c1.2-3.1,1.9-6.3,2.5-9.6c0.9-5.5,1.3-11.1,1.5-16.6c0.2-4.5,0.3-8.9,0.5-13.4C63.2,0.7,63.2,0.4,63.2,0 L63.2,0z">
	</path>
	<path d="M58.3,92.6c-0.1,0.1-0.3,0.2-0.5,0.2c-0.8,0.1-1.7,0.1-2.5,0.2c-3.3,0.3-6.6,0.7-9.9,1.1c-1.7,0.2-3.4,0.7-5,1.4 c-2.5,1.1-4.2,2.9-5.1,5.4c-0.7,1.9-1.1,3.8-1.2,5.8c-0.3,3.7-0.4,7.4-0.6,11.1c0,0.4,0.3,1-0.4,1c-0.5,0-0.3-0.6-0.4-0.9 c-0.4-4-0.8-7.9-1.2-11.9c-0.2-1.8-0.7-3.5-1.4-5.1c-1.1-2.5-2.8-4.1-5.3-5.1c-1.9-0.7-3.8-1.1-5.8-1.2c-3.7-0.3-7.4-0.4-11.1-0.6 H7.5c-0.3,0-0.6,0.1-0.6-0.3s0.3-0.4,0.6-0.4c1-0.1,1.9-0.1,2.9-0.2c3.5-0.3,7-0.5,10.5-1.3c1.3-0.3,2.7-0.7,4-1.2 c2.5-1,4.1-2.8,5-5.3c0.7-1.9,1.1-3.8,1.2-5.8c0.3-3.7,0.4-7.4,0.6-11.1v-0.3c0-0.3-0.1-0.7,0.4-0.7c0.5,0,0.3,0.4,0.4,0.7 c0.4,3.6,0.6,7.3,1.1,10.9c0.2,1.8,0.7,3.6,1.2,5.3c1,3.2,3.2,5.2,6.3,6.2c2.4,0.7,4.8,1.1,7.2,1.2c3,0.2,6.1,0.3,9.1,0.4H58 c0.1,0,0.3,0.1,0.4,0.1C58.4,92.4,58.4,92.5,58.3,92.6z">
	</path>
	<path d="M1.3,240.6c-0.5,0-1-0.4-1-1c0-0.4-1.5-42.6,2.4-70.1c3.9-27.6,18.9-58.3,19.1-58.6c0.2-0.5,0.8-0.7,1.3-0.5 c0.5,0.2,0.7,0.8,0.5,1.3c-0.1,0.3-15.1,30.7-18.9,58c-3.9,27.4-2.4,69.4-2.3,69.8C2.3,240.1,1.9,240.6,1.3,240.6 C1.3,240.6,1.3,240.6,1.3,240.6z">
	</path>
	<path d="M395.3,239.3C395.3,239.3,395.3,239.3,395.3,239.3c-0.6,0-1-0.5-1-1c0-0.6,1.1-58.8-5.7-86.1 c-9.9-39.4-32.6-74.8-67.5-105.1C289.3,19.5,248.2,5.6,195.4,4.3C131.3,2.7,81,43.2,80.5,43.6c-0.4,0.3-1.1,0.3-1.4-0.1 c-0.3-0.4-0.3-1.1,0.1-1.4c0.5-0.4,51.4-41.3,116.2-39.7c53.3,1.3,94.8,15.4,126.9,43.3c35.3,30.6,58.2,66.3,68.1,106.2 c6.9,27.5,5.8,86,5.8,86.6C396.3,238.9,395.8,239.3,395.3,239.3z">
	</path>
</svg>
