<svg width="200" height="73" viewBox="0 0 200 73" fill="none" xmlns="http://www.w3.org/2000/svg">
	<mask id="mask0_3970_2794" style="mask-type:luminance" maskUnits="userSpaceOnUse" x="82" y="40" width="98" height="33">
		<path d="M101.439 40.38V41.1981H102.487L97.8606 54.9179V41.1981H98.908V40.38H93.4508V41.1981H94.4964V71.2457H93.4508V72.062H98.9117V71.2457H97.8643V56.6856L101.565 72.062H105.651V71.2457H104.583L99.9276 51.9341L103.542 41.1981H104.589V40.38H101.439ZM106.573 40.38V41.1981H107.62V71.2457H106.573V72.062H112.034V71.2457H110.986V41.1981H112.034V40.38H106.573ZM121.169 40.38V41.1981H122.215V62.3794L117.637 40.38H113.381V41.1981H114.428V71.2457H113.381V72.062H116.527V71.2457H115.481V47.4046L120.572 72.062H123.262V41.1981H124.31V40.38H121.169ZM133.99 41.5184C133.003 42.4229 132.509 43.5088 132.509 44.7762V67.6659C132.509 68.9344 133.003 70.0204 133.99 70.9237C134.971 71.7999 136.241 72.2841 137.557 72.2841C138.872 72.2841 140.142 71.7999 141.123 70.9237C141.592 70.5207 141.967 70.0205 142.222 69.4579C142.478 68.8953 142.608 68.2838 142.604 67.6659V62.5645H139.236V69.6539C139.247 70.1295 139.07 70.5903 138.744 70.9366C138.593 71.1033 138.41 71.2365 138.204 71.3277C137.999 71.4188 137.777 71.466 137.553 71.466C137.328 71.466 137.106 71.4188 136.901 71.3277C136.696 71.2365 136.513 71.1033 136.362 70.9366C136.037 70.5898 135.86 70.1294 135.87 69.6539V42.7882C135.86 42.3132 136.037 41.8534 136.362 41.5073C136.512 41.3401 136.696 41.2064 136.901 41.1149C137.106 41.0234 137.328 40.9761 137.553 40.9761C137.778 40.9761 138 41.0234 138.205 41.1149C138.41 41.2064 138.594 41.3401 138.744 41.5073C139.07 41.853 139.246 42.3131 139.236 42.7882V49.8794H142.604V44.7762C142.607 44.1583 142.477 43.547 142.221 42.9846C141.966 42.4221 141.591 41.9219 141.123 41.5184C140.141 40.6441 138.872 40.1611 137.557 40.1611C136.242 40.1611 134.972 40.6441 133.99 41.5184ZM148.596 44.1357L149.993 61.2687H147.056L148.596 44.1357ZM148.063 40.38L145.102 71.2457H144.056V72.062H147.217V71.2457H146.17L147.012 62.0536H150.03L150.789 71.2457H149.743V72.062H155.204V71.2457H154.156L151.429 40.38H148.063ZM160.461 41.1981H161.919C162.144 41.1956 162.367 41.2416 162.573 41.333C162.778 41.4243 162.962 41.5589 163.111 41.7275C163.436 42.0739 163.613 42.5336 163.603 43.0084V53.1057C163.613 53.5807 163.437 54.0407 163.111 54.3867C162.962 54.5558 162.779 54.6909 162.573 54.7825C162.368 54.8742 162.145 54.9204 161.919 54.9179H160.463L160.461 41.1981ZM156.046 40.38V41.1981H157.093V71.2457H156.046V72.062H161.509V71.2457H160.461V55.736H161.919C162.144 55.7336 162.367 55.7795 162.573 55.8709C162.778 55.9622 162.962 56.0968 163.111 56.2654C163.436 56.6118 163.613 57.0715 163.603 57.5463V68.7487C163.603 70.9588 164.59 72.0633 166.564 72.062H168.026V71.2457H167.945C167.301 71.2457 166.98 70.8404 166.98 70.0296V59.5362C166.98 57.6062 166.002 56.1994 164.044 55.3159C166.002 54.4903 166.98 53.0909 166.98 51.1178V44.9983C166.984 44.3802 166.853 43.7687 166.598 43.206C166.342 42.6433 165.968 42.1426 165.5 41.7386C164.528 40.8373 163.244 40.35 161.919 40.38H156.046ZM169.083 40.38V41.1981H170.13V71.2457H169.083V72.062H179.593V62.5645H176.229V71.2457H173.498V55.736H177.482V54.9179H173.498V41.1981H176.229V49.8794H179.595V40.38H169.083ZM83.423 41.5073C82.9771 41.9256 82.6235 42.4324 82.3849 42.9953C82.1462 43.5582 82.0277 44.1648 82.0369 44.7762V49.0853C82.0196 50.5168 82.396 51.9256 83.125 53.1576L87.3442 60.1989C88.0321 61.4009 88.3795 62.7679 88.349 64.1526V69.6539C88.349 70.862 87.8629 71.466 86.8908 71.466C85.9187 71.466 85.4252 70.862 85.4104 69.6539V62.5645H82.0425V67.6677C82.0334 68.2793 82.152 68.8861 82.3907 69.4493C82.6293 70.0125 82.9828 70.5197 83.4285 70.9385C84.3683 71.8051 85.5997 72.2862 86.8779 72.2862C88.156 72.2862 89.3874 71.8051 90.3272 70.9385C90.7729 70.5197 91.1264 70.0125 91.365 69.4493C91.6037 68.8861 91.7223 68.2793 91.7132 67.6677V63.1586C91.7311 61.7224 91.3547 60.3087 90.6251 59.0716L86.4189 52.0229C85.7331 50.8274 85.3857 49.4676 85.4141 48.0895V42.7882C85.4141 41.5813 85.9076 40.9772 86.8945 40.976C87.8814 40.9748 88.3675 41.5788 88.3527 42.7882V49.8794H91.7206V44.7762C91.7299 44.1648 91.6114 43.5582 91.3727 42.9953C91.134 42.4324 90.7804 41.9256 90.3346 41.5073C89.8788 41.0635 89.3383 40.7161 88.7454 40.4858C88.1524 40.2556 87.5192 40.1472 86.8834 40.1671C85.5017 40.1671 84.3488 40.6138 83.4248 41.5073H83.423Z" fill="white" />
	</mask>
	<g mask="url(#mask0_3970_2794)">
		<path d="M179.595 40.1597H82.0388V72.2841H179.595V40.1597Z" fill="url(#paint0_linear_3970_2794)" />
	</g>
	<path d="M199.873 29.2476C199.873 27.6362 199.395 26.0609 198.5 24.7211C197.605 23.3812 196.333 22.3369 194.845 21.7203C193.357 21.1036 191.719 20.9422 190.139 21.2566C188.559 21.571 187.107 22.347 185.968 23.4864C184.829 24.6259 184.053 26.0776 183.739 27.6581C183.425 29.2386 183.586 30.8768 184.203 32.3656C184.819 33.8543 185.863 35.1268 187.203 36.0221C188.542 36.9173 190.117 37.3952 191.728 37.3952C192.798 37.3952 193.857 37.1844 194.845 36.7748C195.834 36.3652 196.732 35.7649 197.488 35.0082C198.244 34.2514 198.844 33.353 199.254 32.3643C199.663 31.3756 199.873 30.3159 199.873 29.2458V29.2476ZM191.728 36.3749C190.318 36.3753 188.94 35.9575 187.768 35.1743C186.595 34.3912 185.682 33.2779 185.142 31.9753C184.602 30.6726 184.461 29.2391 184.736 27.8561C185.01 26.4731 185.689 25.2026 186.686 24.2054C187.682 23.2082 188.952 22.529 190.335 22.2538C191.717 21.9786 193.151 22.1196 194.453 22.6592C195.755 23.1987 196.869 24.1124 197.652 25.2849C198.435 26.4573 198.853 27.8357 198.853 29.2458C198.853 31.1359 198.103 32.9487 196.767 34.2855C195.431 35.6224 193.619 36.3739 191.73 36.3749H191.728Z" fill="url(#paint1_linear_3970_2794)" />
	<mask id="mask1_3970_2794" style="mask-type:luminance" maskUnits="userSpaceOnUse" x="55" y="43" width="23" height="30">
		<path d="M64.1149 46.5476C63.3284 46.8141 62.529 47.0381 61.7259 47.2547V61.3502C61.5889 64.4414 60.9548 66.9131 59.8236 68.7654C58.6923 70.6176 57.2341 71.5432 55.449 71.5419H55.1455V72.0621H77.8863V71.5419H77.5773C75.6565 71.5419 74.1261 70.5165 72.9954 68.4526C71.8648 66.3887 71.3004 63.7177 71.3004 60.4302V43.2158C69.0252 44.5688 66.6175 45.6853 64.1149 46.5476Z" fill="white" />
	</mask>
	<g mask="url(#mask1_3970_2794)">
		<path d="M77.8862 43.2176H55.1399V72.0621H77.8862V43.2176Z" fill="url(#paint2_linear_3970_2794)" />
	</g>
	<mask id="mask2_3970_2794" style="mask-type:luminance" maskUnits="userSpaceOnUse" x="9" y="39" width="23" height="34">
		<path d="M15.7298 60.4303C15.7298 63.7177 15.1635 66.3979 14.0329 68.4507C12.9022 70.5035 11.3737 71.5419 9.45102 71.5419H9.14014V72.0621H31.8809V71.5419H31.5738C29.7874 71.5419 28.3298 70.6164 27.201 68.7654C26.0722 66.9144 25.4369 64.4426 25.295 61.3502V42.6068L24.1273 42.181L22.5914 41.6257C20.356 40.8057 18.054 39.982 15.7298 39.5285V60.4303Z" fill="white" />
	</mask>
	<g mask="url(#mask2_3970_2794)">
		<path d="M31.8809 39.5285H9.14014V72.0602H31.8809V39.5285Z" fill="url(#paint3_linear_3970_2794)" />
	</g>
	<mask id="mask3_3970_2794" style="mask-type:luminance" maskUnits="userSpaceOnUse" x="55" y="0" width="23" height="29">
		<path d="M55.1455 0V0.518286H55.4545C57.3754 0.518286 58.902 1.5456 60.0345 3.60023C61.1652 5.66412 61.7314 8.33329 61.7314 11.63V25.1054C64.8773 26.4215 68.1564 27.6228 71.3059 28.4372V11.63C71.3059 8.33329 71.8611 5.66412 73.001 3.60023C74.1409 1.53635 75.6565 0.518286 77.5773 0.518286H77.8863V0H55.1455Z" fill="white" />
	</mask>
	<g mask="url(#mask3_3970_2794)">
		<path d="M77.8862 0H55.1399V28.4446H77.8862V0Z" fill="url(#paint4_linear_3970_2794)" />
	</g>
	<mask id="mask4_3970_2794" style="mask-type:luminance" maskUnits="userSpaceOnUse" x="9" y="0" width="23" height="28">
		<path d="M9.14014 0V0.518286H9.44732C11.3694 0.518286 12.8967 1.5456 14.0292 3.60023C15.1598 5.66412 15.7298 8.32959 15.7298 11.63V27.4543C18.8832 26.8486 22.112 26.7412 25.2987 27.136V11.63C25.2987 8.33329 25.8853 5.66412 27.0493 3.60023C28.2132 1.53635 29.7195 0.518286 31.5738 0.518286H31.8809V0H9.14014Z" fill="white" />
	</mask>
	<g mask="url(#mask4_3970_2794)">
		<path d="M31.8809 0H9.14014V27.4543H31.8809V0Z" fill="url(#paint5_linear_3970_2794)" />
	</g>
	<mask id="mask5_3970_2794" style="mask-type:luminance" maskUnits="userSpaceOnUse" x="0" y="16" width="89" height="37">
		<path d="M62.9397 33.8237C62.7325 33.8089 45.2915 32.4835 33.1948 18.6657C35.4691 18.3973 40.5283 18.2955 46.8293 21.2682C47.7767 21.7143 48.8371 22.2363 50.0066 22.8009C57.1939 26.3085 67.7899 31.4766 76.3059 32.2596C72.5552 33.3077 68.6825 33.8554 64.7884 33.8885C63.6411 33.8885 62.9804 33.8274 62.9379 33.8237M31.459 17.3403C31.3311 17.3769 31.2142 17.4446 31.1189 17.5375C31.0236 17.6304 30.9528 17.7455 30.913 17.8725C30.8732 17.9995 30.8655 18.1344 30.8908 18.2651C30.916 18.3958 30.9733 18.5182 31.0575 18.6213C43.6205 33.9847 62.6141 35.4119 62.8065 35.423C62.9009 35.4341 67.2014 35.8283 73.3673 34.5993C71.7375 35.3053 70.0598 35.8954 68.3469 36.3651C55.349 39.8154 43.9203 33.1832 31.7903 29.7015C22.04 26.9027 11.6772 27.3618 4.08828 35.1268C2.82254 36.4225 1.81772 38.131 1.11082 39.9024C0.845174 40.5573 0.616584 41.2265 0.426139 41.9071C-0.243742 44.3134 -0.177124 46.9937 1.00905 49.1853C2.19522 51.3769 4.62122 52.9669 7.1157 52.7763C9.37146 52.6041 11.3718 51.1011 11.642 48.9576C11.6706 48.7603 11.6799 48.5607 11.6698 48.3616C11.6698 48.3394 11.6698 48.3153 11.6698 48.2931C11.669 48.2968 11.669 48.3006 11.6698 48.3042C11.6704 48.2956 11.6704 48.2869 11.6698 48.2783C11.6175 47.6594 11.3672 47.0738 10.9561 46.6084C10.5449 46.1429 9.99474 45.8224 9.38715 45.6943C8.77956 45.5662 8.14687 45.6373 7.58288 45.8972C7.0189 46.1571 6.55364 46.5918 6.25607 47.1369C5.9585 47.6821 5.84447 48.3086 5.93088 48.9237C6.0173 49.5388 6.29955 50.1096 6.7358 50.5516C7.17205 50.9936 7.73908 51.2833 8.35282 51.3776C8.96657 51.4719 9.59435 51.3658 10.1431 51.0752C9.5597 51.5707 8.85876 51.9079 8.10757 52.0544C6.28667 52.3931 4.33625 51.5657 3.18153 50.1145C2.02682 48.6633 1.65487 46.6624 2.04163 44.8484C2.60603 42.1884 4.70635 40.0116 7.19897 38.9251C9.69159 37.8385 12.5284 37.7367 15.2135 38.168C17.8986 38.5993 20.4708 39.5359 23.0281 40.4688C27.0826 41.9497 31.1704 43.4786 35.2988 44.7503C41.3907 46.629 46.9181 47.3806 51.8756 47.3713C57.7222 47.3549 63.4828 45.9616 68.691 43.304C73.8991 40.6465 78.4084 36.7995 81.8537 32.0745C81.9573 31.9356 82.0591 31.795 82.1609 31.6543C84.319 28.6115 86.0099 25.263 87.1776 21.7199L88.6173 17.3644L88.4933 17.3237C87.3149 20.3519 85.7964 23.2364 83.967 25.9217C82.8145 27.5825 81.2029 28.871 79.3294 29.6295C77.4559 30.388 75.402 30.5835 73.4191 30.192C65.6618 28.6501 56.5796 24.2206 50.7135 21.3552C49.5403 20.7851 48.4688 20.2631 47.5195 19.8133C42.5287 17.4681 38.3059 16.9202 35.4321 16.9202C33.0301 16.9202 31.5849 17.3052 31.459 17.3403Z" fill="white" />
	</mask>
	<g mask="url(#mask5_3970_2794)">
		<path d="M88.6063 16.9202H-0.243652V52.9669H88.6063V16.9202Z" fill="url(#paint6_linear_3970_2794)" />
	</g>
	<path d="M194.76 32.095L194.694 31.1017C194.628 30.4619 194.472 29.9917 194.196 29.6782C194.04 29.509 193.849 29.375 193.636 29.2851C193.424 29.1952 193.194 29.1515 192.963 29.1569C193.51 29.0455 194.001 28.75 194.353 28.3202C194.656 27.9284 194.8 27.4089 194.8 26.7546C194.8 25.8924 194.549 25.2654 194.051 24.848C193.553 24.4306 192.806 24.2338 191.782 24.2338H189.013V34.0526H190.09V29.6927H191.487C192.249 29.6927 192.769 29.8094 193.062 30.0573C193.355 30.3052 193.535 30.7754 193.588 31.4553C193.601 31.5337 193.613 31.6631 193.626 31.8599C193.639 32.0568 193.652 32.239 193.652 32.4468C193.648 32.7839 193.674 33.1206 193.731 33.453C193.754 33.6623 193.816 33.8655 193.914 34.0526H195.278C195.093 33.8557 194.966 33.6116 194.912 33.3472C194.799 32.9397 194.748 32.5176 194.76 32.095ZM191.427 28.7395H190.09V25.1998H191.637C192.346 25.1998 192.872 25.331 193.185 25.6044C193.498 25.8778 193.672 26.3098 193.672 26.9113C193.672 27.5128 193.489 27.994 193.123 28.2947C192.756 28.5955 192.189 28.7395 191.427 28.7395Z" fill="url(#paint7_linear_3970_2794)" />
	<defs>
		<linearGradient id="paint0_linear_3970_2794" x1="87.3979" y1="55.9682" x2="167.023" y2="55.9682" gradientUnits="userSpaceOnUse">
			<stop stop-color="#E8CB6F" />
			<stop offset="0.21" stop-color="#F9F1A9" />
			<stop offset="0.3" stop-color="#E4CB7B" />
			<stop offset="0.48" stop-color="#D2AD52" />
			<stop offset="0.8" stop-color="#FAF3AB" />
			<stop offset="1" stop-color="#CCB778" />
		</linearGradient>
		<linearGradient id="paint1_linear_3970_2794" x1="183.876" y1="29.1957" x2="197.269" y2="29.1957" gradientUnits="userSpaceOnUse">
			<stop stop-color="#E8CB6F" />
			<stop offset="0.21" stop-color="#F9F1A9" />
			<stop offset="0.3" stop-color="#E4CB7B" />
			<stop offset="0.48" stop-color="#D2AD52" />
			<stop offset="0.8" stop-color="#FAF3AB" />
			<stop offset="1" stop-color="#CCB778" />
		</linearGradient>
		<linearGradient id="paint2_linear_3970_2794" x1="59.0615" y1="57.723" x2="72.5767" y2="57.723" gradientUnits="userSpaceOnUse">
			<stop stop-color="#E8CB6F" />
			<stop offset="0.21" stop-color="#F9F1A9" />
			<stop offset="0.3" stop-color="#E4CB7B" />
			<stop offset="0.48" stop-color="#D2AD52" />
			<stop offset="0.8" stop-color="#FAF3AB" />
			<stop offset="1" stop-color="#CCB778" />
		</linearGradient>
		<linearGradient id="paint3_linear_3970_2794" x1="13.0606" y1="55.7586" x2="26.5726" y2="55.7586" gradientUnits="userSpaceOnUse">
			<stop stop-color="#E8CB6F" />
			<stop offset="0.21" stop-color="#F9F1A9" />
			<stop offset="0.3" stop-color="#E4CB7B" />
			<stop offset="0.48" stop-color="#D2AD52" />
			<stop offset="0.8" stop-color="#FAF3AB" />
			<stop offset="1" stop-color="#CCB778" />
		</linearGradient>
		<linearGradient id="paint4_linear_3970_2794" x1="59.0615" y1="14.0973" x2="72.5767" y2="14.0973" gradientUnits="userSpaceOnUse">
			<stop stop-color="#E8CB6F" />
			<stop offset="0.21" stop-color="#F9F1A9" />
			<stop offset="0.3" stop-color="#E4CB7B" />
			<stop offset="0.48" stop-color="#D2AD52" />
			<stop offset="0.8" stop-color="#FAF3AB" />
			<stop offset="1" stop-color="#CCB778" />
		</linearGradient>
		<linearGradient id="paint5_linear_3970_2794" x1="13.0606" y1="13.9546" x2="26.5726" y2="13.9546" gradientUnits="userSpaceOnUse">
			<stop stop-color="#E8CB6F" />
			<stop offset="0.21" stop-color="#F9F1A9" />
			<stop offset="0.3" stop-color="#E4CB7B" />
			<stop offset="0.48" stop-color="#D2AD52" />
			<stop offset="0.8" stop-color="#FAF3AB" />
			<stop offset="1" stop-color="#CCB778" />
		</linearGradient>
		<linearGradient id="paint6_linear_3970_2794" x1="15.2767" y1="35.1455" x2="67.9249" y2="35.1455" gradientUnits="userSpaceOnUse">
			<stop stop-color="#E8CB6F" />
			<stop offset="0.21" stop-color="#F9F1A9" />
			<stop offset="0.3" stop-color="#E4CB7B" />
			<stop offset="0.48" stop-color="#D2AD52" />
			<stop offset="0.8" stop-color="#FAF3AB" />
			<stop offset="1" stop-color="#CCB778" />
		</linearGradient>
		<linearGradient id="paint7_linear_3970_2794" x1="189.122" y1="29.3389" x2="194.282" y2="29.3389" gradientUnits="userSpaceOnUse">
			<stop stop-color="#E8CB6F" />
			<stop offset="0.16" stop-color="#F9F1A9" />
			<stop offset="0.3" stop-color="#E4CB7B" />
			<stop offset="0.48" stop-color="#D2AD52" />
			<stop offset="0.8" stop-color="#FAF3AB" />
			<stop offset="1" stop-color="#CCB778" />
		</linearGradient>
	</defs>
</svg>
